<?xml version="1.0" encoding="utf-8"?>
<!-- Generator: Adobe Illustrator 26.5.0, SVG Export Plug-In . SVG Version: 6.00 Build 0)  -->
<svg version="1.1" id="Layer_1" xmlns="http://www.w3.org/2000/svg" xmlns:xlink="http://www.w3.org/1999/xlink" x="0px" y="0px"
	 viewBox="0 0 290 335" style="enable-background:new 0 0 290 335;" xml:space="preserve">
<style type="text/css">
	.st0{fill-rule:evenodd;clip-rule:evenodd;fill:#FFFFFF;}
	.st1{fill-rule:evenodd;clip-rule:evenodd;fill:#DDDDDD;}
	.st2{fill-rule:evenodd;clip-rule:evenodd;fill:#DDDDDD;}
	.st3{fill-rule:evenodd;clip-rule:evenodd;fill:#CCCCCC;}
	.st4{fill-rule:evenodd;clip-rule:evenodd;fill:#BBBBBB;}
	.st5{fill-rule:evenodd;clip-rule:evenodd;fill:#AAAAAA;}
	.st6{fill-rule:evenodd;clip-rule:evenodd;fill:#FFFFFF;}
</style>
<g>
	<path class="st0" d="M175.9,49c8.6,1.7,17,4.4,24.9,7.9c43.2,19.4,71.9,51.7,83.1,97.8c12.2,50.1,0.1,94.9-34.8,133
		c-20.8,22.7-46.7,37.1-77,42.6c-47.8,8.7-90.2-3.4-126-36.4c-23.4-21.6-38-48.5-43.1-79.9c-7.6-46.8,4.7-88.1,36.8-123.1
		c19.6-21.4,44-35,72.2-41.7c0.4-0.1,0.8-0.1,1.2-0.1c0.7-0.2,1.5-0.3,2.2-0.1c0.9,0.4,1.1,0.9,0.3,1.7c-0.5,0.5-0.2,1,0,1.4
		c0.3,0.7,0.3,1.4-0.5,1.9c-3,1.1-6.1,1.6-9.2,2.5c-18.5,5.4-35.2,14.3-50,26.6c-14.5,12.1-26,26.5-34.6,43.3
		C13.7,141.4,9,157.4,7.1,174.3c-0.3,2.6-0.6,5.2-0.5,7.9c0,1,0,2-0.5,3c-0.4,2.7-0.4,5.3,0,8c0.4,0.7,0.5,1.5,0.5,2.4
		c0.2,10.9,2.1,21.5,5.1,31.9c5.7,19.7,15.3,37.4,28.9,52.8c12.1,13.8,26.3,24.9,42.8,33c15.2,7.5,31.1,12.1,48,13.6
		c6.2,0.5,12.4,1,18.6,0.6c11.1-0.6,22-2.2,32.7-5.3c19.1-5.5,36.2-14.6,51.3-27.5c13.4-11.4,24.4-24.9,32.7-40.5
		c8.1-15.2,13.2-31.3,15.2-48.3c0.4-3.4,0.8-6.8,0.8-10.3c0-0.8,0.1-1.6,0.5-2.4c0.5-2.7,0.4-5.3,0-8c-0.4-0.8-0.5-1.7-0.5-2.6
		c-0.4-15.5-3.9-30.3-9.5-44.7c-5.6-14.3-13.6-27.3-23.6-38.9C236,83.5,219.9,71.4,201,63c-8.2-3.6-16.5-6.5-25.3-8.5
		c-0.7-0.1-1.3-0.3-1.9-0.7c-0.7-0.5-0.7-1.1-0.5-1.9c0.2-0.5,0.6-1.1-0.1-1.6c-0.9-1-0.1-1.4,0.7-1.7
		C174.7,48.6,175.3,48.9,175.9,49z"/>
	<path class="st1" d="M173.3,48.6c0.4-0.7,1.1,0.1,1.6-0.4c0.1,0.6,0.8,0.4,1.1,0.7c-0.7,0-1.5,0.1-2.2,0.1
		C173.6,48.9,173.4,48.8,173.3,48.6z"/>
	<path class="st2" d="M114.3,48.2c0.4,0.3,1,0.4,1.5,0.4c-0.1,0.1-0.2,0.3-0.4,0.4c-0.7,0.3-1.5-0.1-2.2-0.1
		C113.5,48.6,114.2,48.8,114.3,48.2z"/>
	<path class="st0" d="M5.8,184.7c0,3,0,5.9,0,8.9C5,190.6,5,187.7,5.8,184.7z"/>
	<path class="st3" d="M283.4,193.6c0-3,0-5.9,0-8.9c1,1,0.5,2.2,0.4,3.2C283.8,189.8,284.4,191.8,283.4,193.6z"/>
	<path class="st2" d="M116.2,53.5c-0.3,0-0.5-0.1-0.8-0.1c0.5-0.7-0.2-1.2-0.3-1.8c-0.1-0.4-0.9-1.1,0.3-1.4
		C115.3,51.4,116.4,52.3,116.2,53.5z"/>
	<path class="st1" d="M173.7,53.4c-0.3,0-0.5,0.1-0.8,0.1c-0.2-1.2,1-2.1,0.8-3.3c1.1,0.2,0.3,0.9,0.3,1.4
		C173.9,52.2,173.3,52.7,173.7,53.4z"/>
	<path class="st0" d="M56.6,120c-0.9,3.8,1.3,6.8,4.5,6.4c2.1-0.3,3.8-2.2,3.6-4c-0.1-0.9-0.6-1.6-1.5-1.6c-1.2,0-0.8,1.1-0.7,1.7
		c0.4,2.6-1.8,1.3-2.7,1.8c-1.1,0.6-1.4-0.2-1.5-1.3c-0.2-2.2-0.5-4.4-0.9-6.6c-0.2-1,0-1.4,1-1.4c0.1,0,0.3,0,0.4,0
		c1.9-0.7,3.1-0.4,2.9,2.1c2.3-0.9,4.1-0.4,5.6,1.2c1.6,1.8,1.8,4,1,6.2c-1.8,5.6-8.3,7.7-13.1,4.2c-0.4-0.3-0.6-0.7-1.3-0.5
		c-4.5,1.3-8.8-1.4-9.7-6.1c-1.5-7.5,4.7-15.6,12.4-15.9c3.1-0.1,5.8,1.1,7.5,3.9c0.5,0.9,0.4,1.4-0.5,1.9c-1.4,0.7-2.5,1.8-3.8-0.4
		c-0.6-1.1-2.2-1.2-3.5-1.1c-5,0.1-9.4,5.9-8,10.7c0.3,1,0.8,1.8,1.6,2.5c0.6,0.5,1.2,1,2,0.6c0.9-0.4,0.1-1.1,0-1.6
		c-0.2-2.4,0.5-3.1,2.8-3C55.2,119.8,55.8,119.9,56.6,120z"/>
	<path class="st0" d="M30.2,139c2.3,4.4,5.6,7.5,10,9.4c2.7,1.2,5.5,1.5,8.2,0.2c2.7-1.3,3.9-4.2,2.9-6.7c-0.5-1.2-1.4-2-2.6-2.3
		c-2-0.5-2.8,0.2-2.5,2.2c0,0.2,0,0.4,0,0.6c0.4,2.4-1.3,3.7-3.7,2.9c-0.7-0.2-0.4-0.7-0.5-1.1c-0.1-2-0.4-3.9-1.3-5.7
		c-0.6-1.2-1.4-2.1-2.7-2.6c-0.9-0.3-1.8-0.5-2.1,0.7c-0.2,1,0.4,1.8,1.4,1.8c1.6-0.1,2.6,0.3,2.3,2.1c-0.3,1.5-1.9,2.3-3.7,1.9
		c-2.7-0.7-4.5-3.8-3.8-6.5c0.8-3.2,3.8-5,6.8-4.2c1.9,0.5,3.5,1.5,4.5,3.2c0.4,0.6,0.6,0.9,1.5,0.6c5.6-1.9,11.1,2.6,10.6,8.5
		c-0.6,6.8-7.4,11.2-14.4,9.3c-6-1.7-10.4-5.4-13.6-10.7c-0.5-0.8-0.6-1.3,0.3-1.8c0.3-0.2,0.5-0.4,0.8-0.6
		C29.1,139.8,29.5,139.5,30.2,139z"/>
	<path class="st0" d="M242.6,144.2c-1.4-2.1-3.3-3.1-5.7-3.2c-0.9,0-1.8,0.2-1.4,1.5c0.3,1.2-0.4,2-1.4,2.3c-1.1,0.4-2-0.2-2.6-1.1
		c-1.2-1.8-0.6-4.3,1.3-5.7c1.6-1.2,3.4-1.8,5.6-1.2c-0.1-2.1,0.2-4,1.7-5.5c2.3-2.4,5-3.3,8.2-2.3c6.8,2.2,11,10.9,8.3,17.6
		c-1.2,3-3.3,4.6-6.5,5.1c-0.7,0.1-1.7,0.1-1.5-1c0.2-1.2-1.3-2.8,0.6-3.5c3.4-1.2,4.8-3,4.2-6.6c-0.5-3.1-2-5.7-4.9-7.2
		c-1.5-0.8-3.2-0.9-4.6,0.3c-1.3,1.1-1.5,2.6-1.4,4.2c0,0.4,0.2,0.7,0.6,1c2.4,1.6,3.1,4.3,4.3,6.7c0.4,0.8,0.1,1-0.6,1.3
		c-3.3,1.4-6.6,2.9-9.9,4.4c-0.7,0.3-1.2,0.4-1.5-0.5c-0.2-0.6-0.5-1.3-0.8-1.8c-0.6-1-0.1-1.3,0.7-1.7
		C237.8,146.4,240.1,145.3,242.6,144.2z"/>
	<path class="st0" d="M224.7,94.5c-0.3,0.4-0.5,0.7-0.8,0.9c-4.7,5.4-9.5,10.8-14.2,16.3c-1.1,1.2-1.7,0.7-2.3-0.1
		c-0.5-0.8-2.6-0.9-1-2.7c4.7-5.3,9.4-10.8,14.1-16.1c0.3-0.4,0.6-1.3,1.4-0.8C222.8,92.8,223.7,93.7,224.7,94.5z"/>
	<path class="st0" d="M101.6,98.6c-0.5-0.1-0.6-0.6-0.8-1c-3-6.7-5.9-13.3-8.9-20c-0.4-0.9-0.3-1.3,0.6-1.6c0.6-0.2,1.3-0.5,1.8-0.8
		c0.7-0.4,1-0.3,1.3,0.5c3,6.8,6,13.6,9.1,20.4c0.3,0.7,0.1,1.1-0.6,1.4C103.3,97.8,102.5,98.2,101.6,98.6z"/>
	<path class="st0" d="M42.1,112.6c-3.4-0.2-3.7-0.6-2.8-4c1.5-6.1,7.2-10.8,13.5-11.4c1-0.1,1.6,0.1,1.6,1.2c0,0.7-0.1,1.4,0.1,2
		c0.4,1.2-0.3,1.4-1.2,1.5c-0.8,0.1-1.6,0.1-2.4,0.3c-4.5,1-6.9,4-7.4,9.1C43.3,112.7,43.3,112.7,42.1,112.6z"/>
	<path class="st0" d="M80.7,302.7c-0.6,1.6-2,2-3.4,2.3c-1.1,0.2-1.7-0.9-1.5-1.7c0.3-1.4,1.6-1.7,2.8-1.7
		C79.4,301.6,80.4,301.6,80.7,302.7z"/>
	<path class="st0" d="M68.8,127.3c0.9,0.1,1.5,0.6,1.5,1.5c0,0.9-0.6,1.5-1.5,1.5c-0.8,0-1.4-0.6-1.4-1.4
		C67.3,128,67.9,127.5,68.8,127.3z"/>
	<path class="st0" d="M238.2,192.8c-0.8-2.3-0.8-4.6,0-6.8C238.5,188.2,238.4,190.5,238.2,192.8z"/>
	<path class="st0" d="M150.9,213.2c0,2.9-0.3,5.8,0.1,8.7c0.3,2,0.9,3.9,1.9,5.7c1.3,2.3,1.8,4.9,2.1,7.5c0.1,0.9-0.2,1.2-1.1,1.2
		c-7.5,0-15,0-22.4,0c-1.7,0-2.6-1.7-2.1-3.4c0.5-1.5,1.5-2.6,2.8-3.4C139.2,225,145.4,219.6,150.9,213.2z"/>
	<path class="st0" d="M125.6,241.4c-2.2,0.2-4.2-0.7-6.3-1.3c-1.3-0.4-0.8-1.2-0.3-1.8c1.9-2.2,4-4.1,4.7-7.4
		c1.1-4.9,4-8.6,8.8-10.9c3.8-1.8,6.5-4.7,7.6-8.9c0.9-3.1,1.9-6.2,2.8-9.3c0.7-2.4,2.5-2.9,4.4-1.3c1.3,1.2,1.7,2.7,1.3,4.2
		c-0.7,2.7-1.5,5.5-3.4,7.7c-3.6,4.2-7,8.5-12.1,11.1c-3.4,1.8-5.3,5.1-6.6,8.6c-1,2.7-0.2,4,2.1,5.5c0.7,0.4,2,0.4,1.8,1.8
		c-0.2,1.4-1.5,1.2-2.3,1.6C127.4,241.7,126.4,241.4,125.6,241.4z"/>
	<path class="st0" d="M178.6,242.1c1.4-0.2,2.7-0.7,3.8-1.6c2-1.6,4.5-1.4,6.7-1.6c3-0.2,6.1-0.1,9.1-0.1c0.5,0,1,0,1.5,0.3
		c1.4,0.9,3,1,4.7,0.8c1.1-0.2,2.1-0.2,3.1,0.3c1.2,0.6,2.4,0,3.6,0c0.8,0,1.8-0.3,1.7,1.2c-0.1,1.2-0.3,1.9-1.7,1.9
		c-3.8-0.1-7.7-0.5-11.5-0.2c-3.8,0.3-7.6-0.7-11.3,0.7c-0.2,0.1-0.5,0-0.8,0c-1.8,0-3.5-0.1-5.3,0.4c-4.3,1.3-8.8,0.6-13.2,0.6
		c-2.8,0-5.6,0.5-8.4,0.3c-5-0.3-10-0.9-15.1-0.5c-0.5,0-1.5,0.5-1.6-0.7c-0.1-1.3,0.9-1,1.6-0.9c2.1,0.2,4-0.1,6-0.8
		c0.3-0.3,0.7-0.3,1.1-0.3c8.4,0,16.8,0,25.2,0C178.1,242,178.3,242,178.6,242.1z"/>
	<path class="st0" d="M70.7,229.2c-0.3-1.1-0.2-2.6-0.2-4.2c0-1,0.3-1.9,1.2-2.4c1.1-0.6,2.3-0.1,2.3,1.2c0.1,2.7-1,5.1-2.2,7.4
		c-0.2,0.3-0.5,0.5-0.8,0.4c-0.4-0.1-0.5-0.5-0.4-0.8C70.6,230.4,70.7,230,70.7,229.2z"/>
	<path class="st0" d="M75,217.7c0.3-1.5,1.8-1.5,3.1-1.7c0.7-0.1,1.6-0.2,1.7,0.8c0.1,0.9-2.1,3.4-2.9,3.4
		C75.6,220.2,75.2,219.2,75,217.7z"/>
	<path class="st0" d="M178.6,242.1c-7.8,0-15.6,0.1-23.5,0.1c-1.2,0-2.4,0-3.6,0c0.3-0.6,0.9-0.5,1.4-0.5c8.1,0,16.2,0,24.3,0
		C177.7,241.8,178.2,241.7,178.6,242.1z"/>
	<path class="st0" d="M131.3,236.6c7.6,0,15.3,0,22.9,0c0,0.1,0,0.1,0,0.2c-7.7,0-15.3,0-23,0C131.3,236.8,131.3,236.7,131.3,236.6z
		"/>
	<path class="st0" d="M179.4,151c0,0.3,0,1-0.4,0.8c-1-0.6-2.1-1.3-2.8-2.2c-0.3-0.4,0.4-0.9,1-0.8
		C178.3,149.1,179.4,149.5,179.4,151z"/>
	<path class="st0" d="M238.2,185.9c0.1-4.2-0.4-8.4-1.2-12.5c-6-31.4-23.3-54.2-51.7-68.7c-1.7-0.9-3.7-1.3-3.8-3.8
		c-1.1-0.1-0.7,1-1.2,1.4c-0.1,0.1-0.3,0.2-0.4,0.3c-0.1,0.1-0.2,0.3-0.3,0.4c-0.3,0.5-0.1,1.1-0.3,1.7c-0.3-2.2,0.2-4.4-0.3-6.5
		c-0.1-0.3-0.3-0.5-0.7-0.5c-0.1,0.3,0,0.8-0.5,0.9c-0.1,0.2-0.2,0.3-0.3,0.5c-0.5,2.2-0.2,4.4,0,6.6c0,0.6,0.2,1.2,0.3,1.8
		c0.3,0.9,0.3,1.9,1,2.6c0.2,0.1,0.4,0.3,0.5,0.1c1.4-1.6,2.8-0.8,4.3-0.1c11.2,5.5,20.7,13.2,28.7,22.7
		c15.2,18.3,21.8,39.5,20.2,63.2c-0.9,13.2-4.8,25.7-11.4,37.2c-1,1.7-2.2,2.4-4.2,2.4c-9.4-0.1-18.9,0-28.3,0c-4.5,0-8.9,0-13.4,0
		c-1.7,0-2.2-0.7-2.2-2.3c0-2.1,0.7-4,1.6-5.8c1.3-2.8,2.9-5.3,4.2-8.1c1.5-3.1,1.9-6.3,1-9.6c-0.8-2.7-1.6-5.3-2.3-8
		c-0.3-1.2-0.2-2.2,0.9-3.1c5-4,10.5-7.4,16.4-9.9c1.1-0.5,2.1-0.4,3,0.4c1.5,1.4,3.1,2.8,4.6,4.3c0.9,1,1.3,2,0.9,3.3
		c-0.3,1-0.6,2.1-0.1,3.2c1.5,3.4,4,5.9,7.6,7.1c2.3,0.8,3.8,0.2,5.2-1.8c1-1.5,1.7-3.1,2.1-4.8c0.8-3.1,0.1-6.2-0.7-9.2
		c-1.6-5.7-4.2-10.9-6.9-16.2c-0.7-1.4-0.9-2.7-0.4-4.3c0.9-2.8,1.4-5.6,1.5-8.5c0.2-4,0.4-8,1.3-12c1.1-5-0.1-9.5-3.8-13.2
		c-2.9-2.8-6.4-4.4-10.2-5.1c-11.9-1.9-23,0.2-32.5,8c-1.4,1.2-2.8,1.8-4.6,1.3c-2-0.5-4-0.3-6-0.3c-5.9,0.2-9.8,3.4-11,9.1
		c-0.5,2.2-1.1,4.3-2.2,6.3c-0.8,1.5-1,3.2-0.4,4.9c0.7,2,0.7,2-1.4,2.3c-5.9,1.1-11.7,0.4-17.5-0.6c-9.2-1.5-18.1-1.4-26.6,3
		c-1.2,0.6-1.9,0.1-2.5-0.9c-1.1-1.9-2.6-3.5-4.3-4.8c-5.7-4.3-11.5-2.4-13.6,4.3c-0.2,0.5-0.3,1-0.4,1.6c-1.5,6-1.2,11.9,0.5,17.8
		c1,3.3,1.5,6.7,0.6,10.2c-0.2,0.7-0.5,1.6,0.3,2c0.7,0.4,1.4-0.1,2-0.6c2.4-1.8,4.1-4.1,5-6.9c0.1-0.3,0-0.7,0.3-1.1
		c-0.2,0.8-0.3,1.4-0.6,2.1c-0.6,2.7-1.1,5.4-2.1,8c-3,7.3-7.1,13.9-12.2,19.9c-2.5,3-4.2,6.1-3.7,10.1c0.1,0.5,0.1,0.9-0.1,1.4
		c-1.1-2.2-2.1-4.4-3-6.7c-4.2-10.6-6.5-21.5-6.5-32.9c0-9.1,1.1-18,3.9-26.7c7.7-24,23-41.6,45.4-53.1c0.8-0.4,1.8-0.7,2.3-1.6
		c0.1-0.2,0.2-0.4,0.2-0.6c0.1-0.8-0.2-1.6,0-2.4c0-0.9,0-1.8-1.3-1.7c-0.7-0.2-1.2,0.2-1.7,0.4c-9.2,4.3-17.6,9.7-24.8,16.8
		c-24.8,24.6-34.3,54.2-27.2,88.5c9.9,47.5,55.8,79.5,103.9,72.8c27.2-3.8,48.9-17.2,64.7-39.7c10.4-14.9,16-31.5,16.5-49.7
		C237.8,190.5,238,188.2,238.2,185.9z M203.2,160.4c1,0,1.8,0.3,1.5,1.2c-0.2,0.9-0.4,2.3-1.9,2.2c-1.1-0.1-2.7-0.7-2.6-1.8
		C200.5,160.9,202.2,160.8,203.2,160.4z M194.5,148.6c0.3-0.7,1.1-1,1.8-0.8c0.9,0.3,0.3,1.1,0.5,1.7c-0.1,1,0.3,2.2-1.3,2.5
		c-0.7,0.1-1.6,0.7-2-0.1C192.9,150.7,194.1,149.6,194.5,148.6z M190.1,163.3c0.3-0.8,0.5-1.7,0.8-2.4c0.2-0.4-0.2-1.4,0.8-1.3
		c0.8,0.1,2,0,2.1,1.1c0,0.9,1.7,0.8,1.2,2.1c-0.7,1.1-1.3,2.2-2.1,3.2c-0.3,0.4-1.4,0.4-1.6,0C191,165.1,189.6,164.7,190.1,163.3z
		 M181.7,142.8c0.5-1.5,1-3,1.6-4.5c0.1-0.4,0.4-0.7,0.9-0.4c1,0.7,1.1,3,0.2,3.8c-0.5,0.4-1.1,0.8-1,1.6c0.1,0.5-0.4,0.6-0.8,0.7
		C181.9,143.9,181.5,143.5,181.7,142.8z M175,171c0.1-0.5,0.2-1.6,1.4-1.2c1,0.3,1,1.2,0.9,2c-0.1,0.8-0.5,1.5-0.8,2.2
		c-0.6,1.1-1.4,2.3,0.4,3.1c0.6,0.3,0.5,1.2,0.2,1.4c-1.2,0.9,0,3.5-2.2,3.5c-1.8,0-0.5-1.5-0.9-2.3c-0.3-1.4-0.1-2.8-0.6-4.2
		C173.1,174,174.8,172.6,175,171z M169.5,237.6c0,1.2-1.1,1.5-2.3,1.4c-1.3,0.3-2.1-0.7-2.8-1.6c-0.4-0.5,0.1-1.1,0.5-1.6
		c0.6-0.8,1.6-0.7,1.9-0.4C167.7,236.2,169.5,236.1,169.5,237.6z M163.8,157c0.1-0.4,1-0.4,1.3,0.2c0.8,1.8,1.7,3.5,1,5.6
		c-0.4,1.2-1.4,1-1.6,0.5c-0.5-1.4-1.9-2.4-1.8-4.2C162.4,158.1,163.6,157.7,163.8,157z M162.1,216.6c-0.6-0.9,0-1.9,1-2.3
		c1-0.4,1.5,0,2.1,0.9c1.2,2.2,1.1,4.4,0.6,6.6c-0.7,3.1-1.9,6-1.9,9.2c0,1.7-1,3.2-2.9,3.7c-2,0.5-4-0.3-5.1-2
		c-1.3-1.9-1.5-4.2-1-6.2c0.6-2.2,0.5-4.4,0.3-6.6c-0.3-3.1,1-5.8,1.6-8.7c0.2-1,1-1.7,2.1-1.4c1,0.3,1.3,1.2,1,2.1
		c-1.4,4.1-1.9,8.2-1.3,12.4c0.2,1.2-0.7,2.4-0.7,3.7c0,1.2,0.2,2.4,1.5,3.5c0.1-2.5,1.1-4.4,2.1-6.4
		C162.8,222.6,164,219.8,162.1,216.6z M153.3,146c0.2-1,0.7-1.5,1.7-1.5c0.7,0,1,0.3,0.9,1c-0.1,1.1-0.8,1.4-1.8,1.5
		C153.5,147,153.2,146.8,153.3,146z M147.4,153.1c0-0.8,0.2-1.6,1.3-1.6c1.2,0,0.5,1,0.7,1.4c-0.3,0.8,0.2,2-1.2,2
		C147.1,154.9,147.4,153.8,147.4,153.1z M133.1,175.5c2.1-1.6,4.4-1.9,6.8-2.1c1.5-0.1,2.3-0.6,3-1.8c1.3-2.2,2.4-4.5,4-6.5
		c1.6-2,3.6-3.7,6.1-4.4c2.5-0.8,4-0.2,5.3,2c1,1.7,2.2,3.2,2.9,5.1c0.4,1,0.7,2-0.4,2.7c-1.1,0.7-2.2,0.4-3.1-0.5
		c-0.5-0.5-0.8-1-1.2-1.6c-1.5-2.3-3.1-2.5-4.9-0.4c-2.2,2.7-3.8,5.7-4.8,9c-0.2,0.8-0.5,1.5-1,2.2c-0.5,0.7-1.2,0.5-1.8,0.5
		c-0.7-0.1-0.3-0.7-0.4-1.2c-0.1-0.8-0.3-1.6-0.4-2.3c-1.7,0.2-3.3,0.3-4.9,0.6c-1.2,0.2-2.5,0.5-3.6,1.3c-0.8,0.6-2,0.7-2.6-0.4
		C131.8,176.8,132.1,176.3,133.1,175.5z M143.8,186.3c-1.4,0.5-2.2,1.8-2.8,3.1c-0.4,1-1.2,1.2-1.9,0.9c-0.9-0.4-0.5-1.2,0-1.8
		c1.1-1.3,1.1-3,1.7-4.5c0.6-1.6,2.1-2.6,3.7-2.3c0.9,0.2,0.9,0.2,0.8,2.2C145.3,184.9,145.2,185.8,143.8,186.3z M144.5,196.6
		c1.5-1.2,3-1.9,4.9-1c1,0.4,2.1,0.2,3.2,0.1c1.5-0.2,1.7,0.8,1.8,2.2c-0.1,0.5-0.7,0.2-1.1,0.1c-2.6-0.3-5.2-0.7-7.7,0.6
		c-0.6,0.3-1.5,0.3-1.9-0.5C143.2,197.3,144,197,144.5,196.6z M120.2,170.7c1.1-1.5,2.9-2.5,4.4-3.7c0.2-0.2,0.5-0.2,0.7-0.3
		c1.6-0.2,3.3,0.1,4.7-0.7c0.8,0.2,1.6-0.1,1.7,0.8c0.1,0.8-0.1,2-1.1,1.9c-1.8-0.1-2.8,1-3.7,2c-1.8,1.9-4.5,2.3-6.1,4.4
		c-0.3,0.4-1.6,0.6-1.6-0.3C119.2,173.4,119.4,171.8,120.2,170.7z M125,203.5c3.1-0.9,4.5-0.4,6.5,2.2c1,1.3,1.8,2.8,3.4,3.7
		c0.9,0.5,0.3,1.2,0,1.7c-1.3,3.1-3.6,5.5-5.9,7.8c-2.4,2.4-5,4.7-7,7.6c-1.6,2.3-2.8,4.9-2.8,7.7c0,2-0.6,2.5-2.4,2.4
		c-6.7,0-13.5,0-20.2,0c-3.5,0-7.4-2.6-8.7-5.9c-1.4-3.6-0.4-6.8,2.2-9.4c6.1-6.1,13.5-9.9,21.4-13
		C115.9,206.3,120.4,204.8,125,203.5z M110.9,174.7c0.2,0.7,0.4,1.5-0.3,2c-0.4,0.3-1,0.3-1.3,0.9c-0.3,0.6-1.4,1.1-0.1,1.9
		c0.6,0.3,0.3,1.1,0.3,1.7c0,0.4-0.7,0.2-1.2,0.3c-1,0.3-1.6-0.8-2-1.5c-0.5-0.8-0.5-1.9,0.1-2.7c1-1,2.1-1.9,3.3-2.8
		C110,174.4,110.7,174.2,110.9,174.7z M93.2,172.3c0.8-0.8,1.4-1.8,2.6-2.2c2.3-0.7,4.5-1.6,6.8-2.2c0.3-0.1,3.9,1.2,4,1.6
		c0.1,0.6,0.2,1.1-0.4,1.6c-0.5,0.4-1.1,0.5-1.6,0.8c-2.4,1.3-5.3,1.3-7.1,3.8c-0.3,0.5-1.5,0.3-2.3,0.5c-0.9,0.1-1.3-0.2-1.2-1.1
		c0-0.3,0.1-0.8-0.1-1C93.4,173.5,92.6,172.9,93.2,172.3z M79.5,182.8c0,0.7-0.1,1.5-0.1,2.2c0.2,0.4,0,0.5-0.4,0.4
		c-0.7-5.1-1.4-10.3-0.4-15.4c0.6-3,1.5-5.9,4.7-7.2c0.9-0.4,2.2-0.9,2.8-0.1c0.5,0.7-0.3,1.8-1,2.4
		C79.4,169.8,79.5,176.3,79.5,182.8z M77.3,214c-1.7-1.4-0.2-2.9,0.7-4.2c3.9-5.7,7.5-11.5,8.5-18.5c0.2-1.5,0-3,0.2-4.4
		c0.3-3,2.1-4.8,5.1-5.5c2.9-0.6,5.8-1.2,8.8-1.1c1.8,0.1,3,0.6,3.4,2.6c0.6,2.6,1.4,5.1,1.4,7.9c0.1,4.5-2,8-5.7,10.6
		c-3.4,2.3-7.3,3.7-10.9,5.6c-2.8,1.4-5.3,3.1-7.3,5.6C80.3,213.7,79,215.3,77.3,214z M81.5,251.5c3.2-0.3,121.3-0.5,126.4-0.3
		C173.8,287,114.8,286.6,81.5,251.5z"/>
	<path class="st0" d="M82.2,242.6c3.4,0,6.7-0.2,10.1,0.1c-3.3,0.6-6.7,0.2-10.1,0.2c0,0-0.1-0.1-0.1-0.1
		C82.2,242.7,82.2,242.6,82.2,242.6z"/>
	<path class="st0" d="M159.8,152.3c-0.2,0.5,0.2,1.3-0.9,1.3c-0.9,0-0.9-0.6-0.9-1.2c0-0.6,0.2-1,0.9-1
		C159.5,151.4,159.8,151.7,159.8,152.3z"/>
	<path class="st4" d="M180.8,106.3c-0.2-1.2-0.4-1.8,0.3-2.8C181.1,104.6,181,105.2,180.8,106.3z"/>
	<path class="st0" d="M84.3,189.6c-0.2-0.4,0-0.9-0.4-1.2c0-0.4,0.1-0.8,0.6-1C84.8,188.2,84.7,188.9,84.3,189.6z"/>
	<path class="st0" d="M79,185.5c0.1-0.1,0.3-0.3,0.4-0.4c0.3,0.5,0.7,1.3,0,1.5C78.9,186.7,79,185.9,79,185.5z"/>
	<path class="st5" d="M107.7,105.7c0.5,0.7,0.7,1.3,0,2C108,107,107,106.4,107.7,105.7z"/>
	<path class="st0" d="M140.9,296.5c-4.4-0.4-8.8-0.8-13.2-1.7c-11-2.1-21.8-4.6-31.4-10.9c-4.1-2.7-8.4-5.2-12.6-7.7
		c-1.3-0.8-1.3-1.4,0-2.3c3-2.2,6.1-1.9,8.6,0.9c1.7,1.9,2.6,4.2,3.5,6.7c0.6-0.6,1.5-0.9,1.2-2c-0.7-3.1-1.7-6-3.7-8.4
		c-4-4.8-9.7-4-12.2,1.7c-0.1,0.3-0.2,0.6-0.4,1.1c-1.7-1.4-3.2-2.7-4.8-3.9c-1-0.8-1.4-1.6-1.4-2.9c0-3.8-0.2-7.7-0.3-11.5
		c0-0.6,0-1.2-0.6-1.6c-1.3-1-2.5-1.9-4-3.1c0.1,5,1.5,9.5,1,14.3c-2.7-2.9-5.3-5.7-7.4-8.9c-2.7-4.2-5.5-8.3-8-12.6
		c-1.1-1.9-2-1.1-3.3-0.5c-1.8,0.9-0.3,1.7,0.1,2.3c1.3,2.2,2.8,4.3,4.1,6.5c0.9,1.4,0.3,3.8-0.9,4.7c-1.2,0.7-2.8,0-3.7-1.8
		c-0.5-1-0.8-2-1.5-2.8c-0.8-0.9-1.4-1.1-2.4,0c-1.5,1.6-1.9,2.9,0,4.3c0.4,0.3,0.7,0.8,0.9,1.3c1.3,2.3,0,4.4-2.6,4.5
		c-3,0.1-5.3-2.5-4.9-5.5c0.3-2,1.1-3.9,2.2-5.6c0.4-0.6,0.4-0.9-0.2-1.3c-0.7-0.5-0.9-0.1-1.2,0.4c-1.4,2.2-2.7,4.5-3.3,7.1
		c-1.2,4.8,2.3,9.1,7.1,8.8c2.8-0.2,4.4-1.9,5.2-4.6c1.4,1.8,2.5,3.3,3.7,4.8c0.6,0.7,0.5,1.1-0.2,1.6c-1.4,1-2.8,2.1-4.2,3.2
		c-0.6,0.4-1,0.8-0.9,1.6c0.2,1.1,0.4,2.3,0.7,3.7c4.4-3.5,8.5-6.8,12.7-10.1c2.5-2,2.4-2,4.5,0.2c0.6,0.6,1.1,1.2,1.8,1.7
		c1,0.8,1.1,1.4,0.1,2.3c-3.2,3.2-6.3,6.5-9.5,9.7c-1.2,1.1-1.4,2.1-0.8,3.5c0.3,0.7,0.3,1.6,0.6,1.9c3.5-3.3,6.9-6.5,10.3-9.8
		c3.7-3.7,3.6-3.7,7.6-0.3c1,0.9,0.9,1.3,0.1,2.2c-3.6,3.7-7.1,7.4-10.6,11.1c-0.4,0.4-1,0.7-0.6,1.5c0.5,1.1,0.7,2.2,1.2,3.5
		c4.5-4.7,8.9-9.3,13.2-13.9c0.7-0.8,1.2-0.9,2.1-0.3c3.3,2.2,6.7,4.3,10,6.4c0.5,0.3,1.8,0.5,0.8,1.5c-0.7,0.7-0.9,2.6-2.7,1.3
		c-1.4-1-2.9-1.9-4.5-2.7c-3.1-1.4-5.7,0.3-5.9,3.7c-0.2,3.8,2.3,6.5,6.3,6.9c0.9,0.1,2.3-0.3,2.3,0.8c0.1,1.2-1.3,1.6-2.3,1.8
		c-0.7,0.2-1.5,0.1-2.2-0.1c-3-0.8-4.7-3-5.9-5.7c-0.5-1.1-0.9-2.3-0.9-3.5c0-0.9-0.6-0.9-1.3-0.9c-0.9,0-0.7,0.6-0.6,1.2
		c0.4,2.2,0.7,4.4,1.5,6.5c1.6,4.2,5.3,6.5,9.7,5.9c2.4-0.3,4-1.9,4.2-4.2c0.3-2.8-0.6-4.2-3.2-5c-1-0.3-2.1-0.5-3.1-0.9
		c-0.9-0.4-2.1-1-1.6-2.2c0.6-1.2,1.8-0.8,2.9-0.4c0.4,0.2,0.8,0.5,1.2,0.7c1.3,0.8,2.6,1.5,3.7,2.4c1.4,1.1,2.4,0.8,3.4-0.6
		c0.7-1,1.5-1.9,2.3-2.9c0.3-0.3,0.4-0.9,1.1-0.6c2.6,1.2,5.2,2.6,8.2,3.4c-3.8,4.4-3.5,5.6,2.3,10.9c-0.4,0.6-1,0.8-1.7,1.1
		c-1.6,0.8-3.1,1.1-3.7-1.2c-0.2-0.8-0.9-1.3-1.8-1.3c-0.9,0-1.5,0.6-1.8,1.3c-1.1,2.1-0.5,4.3,1.7,5c1.2,0.4,1.3,1.1,1.5,2
		c0.2,1.5,0.5,2.9,0.7,4.4c0.1,0.8,0.5,1,1.2,0.8c0.7-0.2,1.1-0.3,1-1.1c-0.1-0.7-0.1-1.3-0.2-2c-0.5-3.2-0.5-3.2,2.6-4.2
		c6.7-2.3,7.9-4.1,8.1-11.4c0-0.9,0.4-0.8,0.9-0.7c2,0.5,4.1,1,6.1,1.3c1.1,0.2,1,0.7,0.7,1.5c-1.1,4.2-2.1,8.5-3.1,12.7
		c-0.7,2.9-0.1,4.1,2.9,5.3c1.1-4.6,2.2-9.1,3.3-13.7c1.3-5.3,1.3-5.3,6.5-4.1c0.9,0.2,1,0.5,0.9,1.3c-0.6,3.7-0.9,7.5-1.7,11.2
		c-0.6,3-0.7,5.7,2.7,7.1c0.1,0,0.2,0,0.5,0.1c0.8-5.6,1.7-11.2,2.4-16.8c0.2-1.7,0.5-2.7,2.5-2.1c1.4,0.4,1.8-0.3,2-1.6
		C142.8,296.8,142.2,296.6,140.9,296.5z M62.1,262.1c-1.2,0.9-2.5,1.8-3.7,2.8c-0.8,0.6-1.1,0.3-1.6-0.3c-0.9-1.3-1.9-2.6-3.1-4.1
		c2.7-0.7,4.1-2.3,4.3-5.4c1.6,2.2,3,4,4.3,5.8C62.9,261.5,62.6,261.8,62.1,262.1z M109.5,300.4c-1.4,0.1-3-1.6-3-3.1
		c0.1-1.2,0.6-2.1,2.1-2c1.4,0,3.2,1.8,3.2,3.1C111.7,299.8,110.7,300.3,109.5,300.4z"/>
	<path class="st0" d="M239.6,243c-1.5-0.6-1.8-1.2-1-2.6c0.2-0.4,1-0.9,0.3-1.5c-1.4-1.4-3.1-1.1-4,0.7c-6,12.1-13.8,22.9-24.1,31.7
		c-5.8,4.9-11.8,9.4-18.5,13c-7.9,4.2-16.3,6.9-24.7,9.7c-1.4,0.5-1.9,0.9-1.1,2.3c0.6,1.1,1,1.6,2.2,1c0.6-0.3,1.3-0.7,2-0.5
		c0.4,4.3,2,5.9,6.2,6.2c0.8,0.1,1.6,0.1,2.4,0c1.5-0.2,1.5,0.5,1.1,1.6c-0.8,2-1.8,2.5-3.8,1.7c-0.8-0.3-1.7-0.6-2.5,0
		c-0.6,0.4-0.7,1.1-0.6,1.8c0.3,1.9,2.7,3.9,4.4,3.2c1.9-0.8,2.9,0.1,4.1,1.1c0.8,0.6,1.7,1.1,2.4,1.8c1.2,1.2,2,0.9,2.8-0.5
		c-0.7-0.6-1.4-1.2-2.1-1.8c-2.8-2.3-2.8-2.3-1.1-5.4c0.5-0.8,0.9-1.7,1.2-2.5c1.2-3.2,0.6-5.9-1.9-8.3c-0.8-0.8-1.8-1.5-2.8-2.4
		c2.4-0.9,4.7-1.5,6.7-2.7c1-0.6,1.6-0.4,2.2,0.6c2.2,3.7,4.5,7.3,6.8,11c1.9,3.1,2.5,3.3,6.3,2.5c-0.1-0.2-0.2-0.5-0.4-0.7
		c-3-4.9-6-9.9-9.1-14.8c-0.6-0.9-0.5-1.3,0.4-1.7c1.4-0.6,2.8-1.3,4.1-2.2c1.1-0.7,1.7-0.6,2.4,0.4c2.5,3.4,5.4,6.6,7.7,10.1
		c1.8,2.8,4.1,2.8,7,2.3c-4.2-5.4-8.2-10.5-12.3-15.8c3.6-2,6.5-4.8,9.5-7.3c0.6-0.5,1.1-0.7,1.7-0.1c1.4,1.3,2.9,2.6,4.5,4
		c-1.4,0.7-3.1,0.9-3,2.6c0.1,1.4,1.3,1.9,2.4,2c4.8,0.3,9.7,0.4,14.5,0.6c0.9,0,1.1-0.4,1.1-1c0.1-0.9-0.5-1-1.2-1
		c-2.4-0.1-4.7-0.2-7.1-0.2c-0.5,0-1.5,0.2-1.2-0.5c0.4-1-1.3-2.4,0.7-2.9c2.8-0.7,4.7-2.7,6-5.1c1.1-1.9,1.9-1.7,3.2-0.5
		c2.3,2.3,4.9,2.8,7.8,0.7c-5.6-3.9-11.1-7.8-16.7-11.8c3.5-3.7,5.9-8.1,8.8-12.1c1-1.4,1.5-3.8,2.9-4c1.6-0.2,3.4,1.1,5,1.8
		c0.1,0,0.1,0,0.2,0.1c1,0.3,1,0.7,0.5,1.6c-1.6,2.4-3.2,4.8-4.7,7.3c-0.9,1.5-0.3,2.6,1.4,2.4c1.8-0.2,3.6-0.6,5.4-1
		c0.6-0.1,1.1-0.3,1.2-1c0.2-0.8-0.4-1.1-1-1.3c-1.7-0.5-1.4-1.4-0.6-2.6c2.4-3.6,2.5-3.9,6.4-1.9c2.9,1.5,4.9,0.5,7.1-1.4
		C251.4,247.6,245.5,245.2,239.6,243z M181.3,297.7c0.2,1.2-1.2,2.4-2.6,2.5c-1.7,0-3.2-1.1-3.1-2.5c0.1-1.5,1.2-1.9,2.5-2.1
		C179.5,295.8,181.1,295.9,181.3,297.7z M226.2,267.9c1.3,0.7,1.6,1.7,1.4,3c-0.2,2.1-2.8,5.1-4.8,5.8c-0.6,0.2-1.1,0.2-1.6-0.3
		c-1.7-1.6-3.5-3.1-5.3-4.7c2.1-1.8,4.1-3.5,5.6-5.7c0.5-0.7,0.9-0.8,1.6-0.2C224,266.5,225,267.4,226.2,267.9z"/>
	<path class="st0" d="M234.4,247.2c-0.9,0.2-1.5-0.1-1.9-0.9C233.1,246.6,233.8,246.9,234.4,247.2z"/>
	<path class="st0" d="M209.8,83.3c-0.9-0.5-0.8,0.9-1.5,1c-1.4-3-4.4-5.4-7.6-6c-1.4-0.3-3.2-0.4-4,0.8c-1.2,1.8-2.4,1.2-3.9,1
		c-2.4-0.3-4.4,0.7-5.9,2.8c-1.3,2-1.7,4.1-0.2,6c0.7,1,0.7,1.6,0.2,2.6c-1.5,3.2,0,7.1,3.3,8.8c3.3,1.7,7.1,0.7,9-2.3
		c1.4-2.3,1.3-4.7-0.1-6.9c-1.5-2.4-3.7-3.7-6.6-3.5c-0.7,0.1-1.4,0.3-2-0.5c-0.8-1.1-0.1-2.3,1.5-2.5c3-0.2,5,1.4,6.7,3.7
		c0.3,0.4,0.4,1.2,1.2,1.1c2.6-0.4,3.3-2,1.8-4.1c-0.4-0.5-0.9-1-1.4-1.5c-0.4-0.4-1.1-0.5-0.8-1.2c0.4-0.7,1-0.4,1.6-0.2
		c3.4,1.3,5,5.8,3.2,8.9c-1.9,3.5-3.9,6.9-5.9,10.3c-1.4,2.4-1.3,2.3,1,3.7c1,0.6,1.5,0.6,2.1-0.5c3.5-6.3,7.2-12.5,10.8-18.7
		c0.2-0.3,0.5-1,0.5-1C211.9,84.5,210.9,83.8,209.8,83.3z M193.2,91.5c1.6,0,2.8,1.2,2.8,2.8c0,1.5-1.2,2.6-2.7,2.7
		c-1.5,0-2.9-1.3-2.8-2.8C190.5,92.7,191.8,91.5,193.2,91.5z"/>
	<path class="st0" d="M94.5,99.5c-4.1-5.5-7.9-11.2-11.9-16.8c-0.4-0.6-0.7-2.2-2-1c-0.9,0.8-3.4,0.9-1.9,3.2
		c-3.4,0.2-6.4,1.6-8.3,4c-1.2,1.5-2.2,3.3-1.1,5.2c0.7,1.1,0.4,1.5-0.3,2.2c-1.9,2-2.1,4.9-0.8,7.3c1.3,2.4,3.1,3.3,6.1,2.8
		c0.8-0.1,1,0.1,1.5,0.6c2.3,2.7,5.3,3.4,8.3,2c3-1.4,4.7-4.5,4.1-7.6c-0.5-2.9-2.8-4.9-5.9-5.2c-3.2-0.3-6.3,1.6-7.4,4.8
		c-0.4,1-0.9,1.6-1.9,1.3c-1.2-0.2-1.3-1.2-1.1-2.2c0.3-1.2,1-2,1.9-2.8c1.4-1.2,3.1-1.6,4.8-2c0.5-0.1,1,0,1.1-0.8
		c0.5-2.9-0.4-3.9-3.3-3.1c-0.6,0.2-1.2,0.4-1.7,0.6c-0.5,0.2-1,0.7-1.4,0.1c-0.4-0.6,0.2-1,0.6-1.3c2.5-2.5,7.4-2.2,9.5,0.7
		c2.5,3.5,5,7,7.4,10.6c0.9,1.5,1.6,1.1,2.6,0.3C94.4,101.6,95.9,101.4,94.5,99.5z M81.5,100.1c1.4,0.1,2.6,1.4,2.6,2.8
		c0,1.4-1.3,2.6-2.7,2.7c-1.5,0-2.8-1.3-2.8-2.8C78.6,101.4,80.1,100,81.5,100.1z"/>
	<path class="st0" d="M244.8,116.2c-0.7-1-1.5-2-2.4-2.7c-0.6-0.4-0.9,0.9-1.7,0.7c-0.4-4.9-3.6-9-8.2-10.3
		c-3.4-0.9-6.7-0.6-9.4,2.1c-2.4,2.4-3.1,5.3-1.6,8.5c-1,0.3-1.7-0.3-2.5-0.2c-0.9,0.1-1.8,0.3-1.2,1.6c2.3,5.5,4.7,11,7,16.5
		c0.2,0.6,0.5,0.9,1.2,0.6c0.8-0.4,2.4,0,2.4-1.1c0-1.2,0.7-1.5,1.3-2.1c4.7-4.1,9.4-8.2,14.2-12.3
		C244.3,117.1,245.2,116.9,244.8,116.2z M234.3,120.1c-2.5,2.2-5.1,4.4-7.7,6.7c-1.1-2.6-2.1-5-3.2-7.7c2.8,0,5.4,0.6,7.9,1
		c1.5,0.2,1.5-0.7,1.4-1.4c-0.1-0.8,1.1-2.3-0.9-2.4c-1.2-0.1-2.4-0.5-3.6-0.6c-1.8,0-2.7-1-3-2.6c-0.3-1.8-0.1-3.5,1.6-4.6
		c2.4-1.6,5.9-1,8.1,1.4C237.7,112.9,237.5,117.4,234.3,120.1z"/>
	<path class="st0" d="M266.7,177.3c-6.6,0-12,5.3-12,11.9c0,6.5,5.5,12,12,12c6.5,0,12-5.5,12-12
		C278.7,182.7,273.3,177.3,266.7,177.3z M266.6,198.7c-5.2-0.1-9.5-4.5-9.5-9.7c0.1-5.2,4.3-9.3,9.7-9.3c5.2,0,9.3,4.2,9.3,9.4
		C276.2,194.4,271.7,198.8,266.6,198.7z"/>
	<path class="st0" d="M22.5,177.3c-7-0.1-12.4,5.1-12.4,11.8c-0.1,6.6,5.3,12,11.8,12c6.5,0,12-5.4,12.1-11.9
		C34.1,183,28.7,177.4,22.5,177.3z M22,198.7c-5.3,0-9.6-4.4-9.5-9.7c0.1-5.3,4.2-9.3,9.6-9.2c5.1,0,9.3,4.3,9.4,9.4
		C31.6,194.3,27.1,198.7,22,198.7z"/>
	<path class="st0" d="M266.5,194.9c-3.2-0.1-5.5-2.6-5.4-6c0.1-3,2.6-5.4,5.7-5.4c3.2,0,5.7,2.8,5.6,5.9
		C272.2,192.6,269.7,194.9,266.5,194.9z"/>
	<path class="st0" d="M27.6,189.2c0,3.2-2.4,5.6-5.6,5.6c-3.1,0-5.7-2.5-5.7-5.6c0-3.1,2.6-5.8,5.8-5.8
		C25.2,183.5,27.6,186,27.6,189.2z"/>
	<g>
		<path class="st6" d="M179.8,119c-0.9,1.1-0.2,2.5-0.5,3.7c-0.1,0.7,0.6,1.9-0.5,2c-1.5,0.2-0.5-1.4-1.1-2
			c-0.8-0.1-1.2,0.6-1.9,0.8c-0.3,0-0.4-0.2-0.5-0.4c0.4-0.6,1.2-0.8,1.8-1.2c0.4-0.3,1.1-0.5,0.8-1.1c-0.4-0.7-0.8,0.3-1.3,0.2
			c-0.2-0.1-0.4-0.1-0.5-0.4c0.5-0.8,2-0.6,2.1-1.9c-0.2-0.2-0.2-0.4,0.1-0.6c0.3,0.2,0.6,0.7,1.1,0.5
			C179.8,118.4,179.9,118.7,179.8,119z"/>
		<path class="st6" d="M113.2,120.6c-0.3,0.1-0.5,0.1-0.8,0.2c0,0.9,0.8,1.7,0.6,2.7c0,0-0.1,0.1-0.1,0.1c-0.2-0.1-0.4-0.2-0.6-0.2
			c-2,0.4-2.4,0-2.6-2.3c0.8-0.6,0.9,1.4,1.7,0.5c0.5-0.5,0-0.9-0.2-1.3c-0.1-0.4,0-0.6,0.4-0.4
			C112.3,120.1,112.7,120.4,113.2,120.6z"/>
		<path class="st6" d="M121.8,127.2c-0.4-0.1-0.7-0.3-1.1-0.4c-2-0.8-2.2-0.7-1.9,1.4c-0.6-0.4-0.9-1-1.1-1.6
			c-0.4-1.1,0.1-1.6,1.1-1.4c1.4,0.3,2.7,0.7,3.6,2C122.3,127.3,122.1,127.3,121.8,127.2z"/>
		<path class="st6" d="M119.4,124c0.2-0.1,0.3-0.3,0.5-0.4c1.9,0.6,3.9,1.3,5.8,1.9c-0.1,0.3-0.4,0.5-0.7,0.6
			c-0.1,0.1-0.3,0.2-0.4,0.2c-0.3,0.2-0.6,0.6-1,0.4c0.2-0.9-0.4-1.3-1.1-1.5C121.4,124.9,120.3,124.7,119.4,124z"/>
		<path class="st6" d="M134.6,125.2c-1.4-0.7-3.1-0.1-3.8-1.9C132.2,123.4,133.7,123.3,134.6,125.2z"/>
		<path class="st6" d="M142.1,130.2c-0.9,0.1-1.6,0.1-2.1,0.3c-0.3,0.1-0.4,0.9-0.9,0.2c-0.3-0.5-0.2-1,0.4-1.3
			C140.4,129,141.3,129,142.1,130.2z"/>
		<path class="st6" d="M178.2,118.1c0,0.2,0,0.4-0.1,0.6c-0.9-1.4-2.1,0.4-3.2-0.2C176.1,117.5,177,116.1,178.2,118.1z"/>
		<path class="st6" d="M175.3,123.1c0.2,0.1,0.3,0.3,0.5,0.4c-0.4,0.6-1.2,1.2-0.4,2c0.1,0.4,0,0.6-0.5,0.4
			C173.2,124.8,174.3,123.9,175.3,123.1z"/>
		<path class="st6" d="M172.5,123.1c-0.2-0.1-0.4-0.3-0.5-0.4c1-0.5,2-1,3-1.5c0.2,0.1,0.4,0.1,0.4,0.4
			C174.5,122.2,173.6,122.8,172.5,123.1z"/>
		<path class="st6" d="M111.8,119.9c-0.1,0.1-0.3,0.3-0.4,0.4c-1-0.6-1.9-1.1-2.9-1.7C109.9,118.5,110.8,119.2,111.8,119.9z"/>
		<path class="st6" d="M124.7,125.9c0.3-0.1,0.6-0.3,0.9-0.4c0.6,0,1.2,0,1.6,0.4c-0.4,0-0.7,0.1-0.9,0.5
			C125.6,126.8,125.1,126.7,124.7,125.9z"/>
		<path class="st6" d="M175.4,121.5c-0.1-0.1-0.3-0.3-0.4-0.4c0.4-0.2,0.7-0.3,1.1-0.5c0.2,0.1,0.3,0.2,0.5,0.4
			C176.2,121.2,175.8,121.3,175.4,121.5z"/>
		<path class="st6" d="M179.8,119c-0.2-0.1-0.3-0.3-0.5-0.4c0.4-0.3,0.8-0.9,1.2-0.4C180.9,118.6,180.2,118.9,179.8,119z"/>
		<path class="st6" d="M174.9,126c0.2-0.1,0.3-0.3,0.5-0.4c0.4,0.2,0.9,0.2,1.1,0.7C175.8,126.6,175.3,126.5,174.9,126z"/>
		<path class="st6" d="M124.4,126c-0.3,0.3-0.5,0.5-0.8,0.8c-0.4,0.1-0.8,0.2-1.1,0.3c-0.2,0-0.4,0-0.6,0.1c0.1,0.8,0.7,1.4,1.3,1.9
			c0-0.1,0-0.3,0.1-0.4C124.6,128.2,125.4,127.5,124.4,126z"/>
		<path class="st6" d="M146.4,128.2c-6.5-0.5-12.9-0.9-19.1-2.3c-0.4-0.2-0.8-0.2-1.1,0.2c-0.1,1.8-0.9,2.9-2.9,2.5
			c-0.2,0.1-0.2,0.3-0.1,0.5c1.1,1.7,3.6,0.8,4.8,2.6c0-1.6,0-3.2,0-4.8c0.9,0.2,1.6,0.3,2.3,0.4c1.2,0.3,1.4,1.2,0.5,1.8
			c-1.2,0.7-0.3,1.1,0.1,1.4c0.5,0.4,0.9,1.6,1.9,0.7c1.1-1,1.9-0.9,2.3,0.6c0.2,1,0.8,1.4,1.9,1.4c0-1.6-0.6-3.8,0.2-4.5
			c1-0.9,3-0.2,4.6-0.1c0.8,0.1,1.2,0.4,1.2,1.3c0,0.8-0.1,1.5-1,1.7c-0.5,0.1-1.1,0.1-1.6,0.2c0.5,1.4,2.2,0,2.7,1.4
			c0.2,0.4,0.7,0.7,1.2,0.5c0.6-0.2,0.2-0.8,0.3-1.3C144.7,130.8,143.5,128.7,146.4,128.2z M135,129.2c0,0.7-0.4,0.7-0.9,0.6
			c-0.8-0.1-1.4-0.3-1.3-1.4c0.1-0.9,0.8-0.5,0.7-0.5C135,127.8,135,128.5,135,129.2z"/>
		<path class="st6" d="M172,122.6c-5.6,2.2-11.5,3.6-17.4,5c2.7,0.3,5.1-0.9,7.7-0.8c0,0.2,0.1,0.3,0.1,0.5
			c-1.1,0.3-2.2,0.5-3.3,0.8c1.1,3.2-1.9,1.2-2.6,2.1c2,1.1,3.6,1,4.1-0.5c0.3-0.8,0.5-1.5,1.4-1.3c1,0.2,0.4,1.1,0.5,1.7
			c0,0.8,0.3,1.2,1.1,1.1c0.9,0,0.5-0.8,0.6-1.2c0.1-0.5,0.1-1,0-1.4c-0.5-2.2,0.7-3,2.6-3.3c0.5-0.1,1.1-0.5,1.4,0.2
			c0.3,0.6-0.4,0.9-0.7,1.3c-0.4,0.3-1.3,0.3-1.1,1c0.2,0.5,0.8,0.9,1.4,1.1c1.6,0.4,2.8-1.4,4.5-0.6c0.2,0.1,0.2-0.7,0.2-1.1
			c0.1-1.4-0.3-2.8,0.3-4.2C172.6,122.7,172.4,122.5,172,122.6z M167.7,127.9c0.6-0.9,2-1.4,1.1-3c-0.3-0.5,1.2-0.5,1.9-1
			C171.1,126.7,170.3,127.7,167.7,127.9z"/>
		<path class="st6" d="M119.9,123.6c-2.2-1-4.4-2-6.6-2.9c-0.2,0-0.4-0.1-0.6-0.1c-0.1,0.1-0.1,0.2-0.1,0.3c0.3,0.2,0.6,0.5,0.9,0.6
			c0.8,0.2,1.2,0.6,1.1,1.4c-0.1,1.1-1,0.6-1.5,0.7c0,0,0,0,0,0c0,0,0,0,0,0.1c1.6,0.8,1.3,3,2.9,4.1c0-1.8,0-3.3,0-4.9
			c1.3,0.4,2.4,0.8,3.5,1.2C119.8,124.2,119.9,123.9,119.9,123.6z"/>
	</g>
</g>
<g>
	<path class="st6" d="M186.4,26.7c-0.9,2.1-2.4,3.7-4.3,4.9c-0.6,0.4-1,1.2-1.6,1.8c-1.1,1.2-2,2.5-3.2,3.5
		c-0.9,0.8-2.5,0.1-2.8-1.2c-0.1-0.3,0-0.6-0.1-0.8c-0.2-0.3-0.4-0.5-0.7-0.7c-0.1-0.1-0.5,0.1-0.5,0.2c0,0.3,0,0.6,0.2,0.9
		c0.7,1.4,1.5,2.7,2.2,4.1c0.2,0.3,0,0.8,0.1,1.3c0,0.3,0.1,0.6,0.2,0.9c0.1,0.9,0.3,1.8,0.4,2.6c0,0.3,0,0.6,0.1,0.9
		c0.7,1.3,0.4,2.4-0.4,3.6c-0.2,0.3-0.1,0.9-0.2,1.3c-0.3,0.9-0.6,1.8-0.9,2.6c-0.1,0.4-0.5,0.8-0.4,1.1c0.4,1.1-0.3,1.8-1,2.4
		c-0.5,0.4-0.8,0.9-0.9,1.6c-0.3,1.1-0.8,2.3-1.6,3.2c-0.9,1-1.4,2.2-1.7,3.5c0,0.1-0.1,0.3-0.1,0.3c-1.4,0.6-0.9,1.9-0.9,2.9
		c-0.1,2.1,0,4.3-0.2,6.4c-0.1,1-0.7,2-0.9,3.1c-0.2,0.9-0.2,1.8,0,2.6c0.4,1.7,1,3.3,1.5,4.9c0.4,1.8,0.7,2.1,2.6,2.1
		c2.3,0,3,0.4,3.8,2.5c0.1,0.2,0.3,0.4,0.5,0.6c1.1,0.9,1.3,1.6,0.9,2.9c-0.1,0.4-0.1,0.9,0.1,1.2c0.7,1.1,1.3,2.4,2.3,3.1
		c1,0.7,1.1,1.7,1.5,2.7c0.1,0.3,0.2,0.7,0.2,1c-0.2,1.1,0.1,1.8,0.9,2.6c0.5,0.5,0.5,2.2,0.1,2.5c-1.4,1.1-1.1,2.6-1.5,4
		c-0.3,1.1-0.9,2.1-1.4,3.1c-0.1,0.2-0.3,0.3-0.3,0.5c-0.6,2.2-2.4,2.9-4.3,3.6c-0.3,0.1-0.6,0.2-0.9,0.3c-1.7,0.5-1.7,0.5-1.7,2.3
		c0,1.4-0.7,2.5-1.9,3c-0.9,0.4-2,0.7-3,0.7c-13.7,0.4-27.5,0.2-41.2-0.3c-0.7,0-1.3-0.1-2-0.1c-3.1-0.3-4.3-2.2-3.2-5.1
		c-1.7-0.2-3.3-0.4-5-0.7c-1.1-0.2-2.1-0.8-2.6-2c-1-2.2-1.7-4.4-1.6-6.9c0-0.3-0.2-0.6-0.5-0.8c-1.1-0.7-1.3-2.1-0.5-3.2
		c0.3-0.5,0.6-1.1,0.7-1.7c0.3-1.9,0.5-3.8,0.8-5.6c0.1-0.3,0.4-0.9,0.6-0.9c1.4-0.1,1.6-1.6,2.7-2.1c0.2-0.1,0.3-0.7,0.2-1
		c-0.5-2.1-0.4-2.4,1.2-3.6c0.3-0.2,0.6-0.7,0.7-1.1c0.5-1.6,1-1.9,2.6-1.8c2.1,0.1,2.3,0,2.7-2.1c0.2-0.9,0.1-1.9,0.2-2.9
		c0.1-1.2,0.1-2.4,0.5-3.5c0.5-1.5,0.4-2.9,0.1-4.4c-0.5-2.6-0.8-5.2-1.2-7.9c0-0.3-0.1-0.6,0-0.8c0.3-1.1,0.3-2.1-1-2.6
		c-0.1,0-0.2-0.2-0.2-0.3c0-1.6-1.3-2.5-2-3.7c-0.7-1.3-1.5-2.5-2.4-3.6c-0.7-0.9-1.2-1.9-0.8-3.1c0.1-0.2-0.2-0.5-0.4-0.7
		c-0.7-0.8-1.1-1.8-0.7-2.9c0.1-0.3,0-0.7,0-1c0.1-1.2,0.5-2.3,0.4-3.5c-0.2-1.8,1-2.9,1.5-4.4c0.5-1.3,1.8-2.6,0.9-4.3
		c-0.1-0.1-0.1-0.2-0.2-0.4c-0.3,0.6-0.5,1.1-0.9,1.5c-1,1.3-2.7,1.2-3.6-0.1c-1.1-1.6-2.2-3.1-3.3-4.7c-0.2-0.2-0.5-0.3-0.7-0.5
		c-0.8-0.5-1.6-0.9-1.6-2c0-0.2-0.2-0.4-0.4-0.5c-1.2-0.7-1.6-1.4-1.1-2.7c0.4-1,1-1.9,1.7-2.7c0.7-0.8,1.3-1.6,1.4-2.8
		c0.1-1.5,1-2.3,2.4-2.8c1.5-0.5,2.6-1.4,3.4-2.8c1-1.8,2.1-3.4,4.4-3.4c0.3,0,0.5-0.3,0.8-0.5c1.6-1.3,3.7-1.3,5.1,0.2
		c0.8,0.9,1.7,1.3,2.9,1.4c0.8,0.1,1.6,0.5,2.4,0.9c0.9,0.4,1.4,0.2,1.8-0.7c0.3-0.8,0.9-1.4,1.2-2.2c0.2-0.5,0.3-1,0.3-1.5
		c-0.1-1-0.3-2-0.4-3c-0.1-1.3,1.4-2.5,3-2.3c0.9,0.1,1.7,0.1,2.5-0.4c0.4-0.2,1.1,0,1.9,0.1c0.2-0.3,0.6-0.7,1-1.2
		c1.8,0,3.5,0,5.3,0c0.4,0.5,0.9,1,1.6,0.4c0.2-0.2,0.6,0,1,0c0.5,0,1,0,1.6,0c0.6,0,1.4-0.2,1.7,0.1c0.7,0.8,1.6,0.6,2.4,0.6
		c2-0.2,3,0.7,3.3,2.6c0.1,0.3,0.2,0.6,0.3,1c0.3,0.9,0.7,1.7,0.7,2.6c0,1.2,0,2.2,1,3.1c0.3,0.3,0.5,0.9,0.6,1.3
		c0.1,1,0.6,1.2,1.5,1c1-0.3,2-0.4,2.9-0.7c0.4-0.1,0.7-0.4,1-0.7c3.7-4.9,8.7-2.6,10.5,1c0.9,1.8,1.8,2.6,3.7,2.9
		c2.6,0.4,3.3,1.6,3.4,4.3c0,0.5,0.3,1.1,0.6,1.5c0.8,1.1,1.6,2.2,2.4,3.3C186.4,26.2,186.4,26.5,186.4,26.7z M145.5,119.1
		c-0.1,0.8,0.5,0.7,0.9,0.6c0.4-0.1,0.7-0.4,1-0.6c-0.1-0.2-0.1-0.3-0.2-0.5C146.6,118.8,146.1,118.9,145.5,119.1
		c-1.2-0.6-1.8-0.5-2,0.5C144.2,119.8,145,120,145.5,119.1z M149.5,117.1c0.3,0.3,0.5,0.7,1,1.2c0.2-0.1,0.5-0.4,0.8-0.6
		c-0.3-0.4-0.7-0.8-1-1.3C150,116.6,149.7,116.9,149.5,117.1c-0.3-0.1-0.7-0.2-1.2-0.4c0.1,0.7,0.2,1.1,0.3,1.5
		C149.6,118.4,149.7,117.8,149.5,117.1z M139.6,116c-0.2,0.2-0.5,0.4-0.6,0.6c-0.2,0.3-0.3,0.7-0.5,1.1c0.4,0.2,0.8,0.3,1,0.4
		c0.3-0.8,0.5-1.4,0.8-2C140.1,116.1,139.8,116.1,139.6,116c-0.4-0.1-0.8-0.3-1.1-0.2c-0.7,0.2-1.3,0.5-1.9,0.8
		c-0.7,0.4-0.7,1,0,1.4c0.3,0.2,0.7,0.1,1.1,0.2c0-1.2,0-1.2,0.9-1.7C138.9,116.3,139.2,116.2,139.6,116z M153.6,52.4
		c0.4-0.2,0.8-0.4,1.1-0.7c1.1-1,0.9-1.8-0.3-2.6c-0.4-0.2-0.6-0.8-0.9-1.2c-0.5-0.6-1.1-1.3-1.6-1.9c-0.4,1.1,0.8,1.9,0.1,2.9
		c0,0,0.2,0.3,0.4,0.4C153.5,50,154.2,51,153.6,52.4c-0.5-0.8-1.1-1.6-1.7-2.5c-0.6,1.8-0.4,2.3,1,3.2c0.5,0.4,0.9,1,1.3,1.6
		c0.5-0.4,0.5-0.9,0-1.5C154,52.9,153.8,52.6,153.6,52.4z M145.5,41.3c0.7,0.4,1.3,1,2.1,1.3c1.2,0.6,2,1.3,1.7,2.8
		c-0.8-0.6-1.6-1.2-2.4-1.8c-0.9,0.5-0.9,1.3-0.4,1.9c0.5,0.5,1.3,0.9,2,1.1c1,0.3,1.4,0.8,1.1,1.6c-0.1,0.2-0.2,0.5-0.3,0.8
		c1.1,0.4,1.8-0.2,2.1-0.9c0.4-0.8-0.3-1.2-1-1.5c-0.4-0.2-0.7-0.6-1.1-1c0.2,0,0.5,0.1,0.6,0c0.5-0.5,1.1-1.1,1.5-1.7
		c0.1-0.1-0.6-0.7-1-1.1c-0.4-0.4-0.7-0.8-1.1-1.2c-0.8-0.9-1.6-1.8-2.4-2.6c-0.6,0.9-1,1.4-1.3,2c-0.9-0.3-1.9-0.6-2.3,0.7
		c-0.3,0.9-0.8,1.4-1.7,1.9c-0.9,0.4-0.8,1.3-0.4,2.1c0.3,0.7,0.8,1.1,1.6,0.8c-0.3-1.4,0.1-2.5,1.4-3
		C145.1,43,145.5,42.4,145.5,41.3z M129.9,36.8c-0.4-0.8-0.8-1.5-1.2-2.2c-0.6,0.6-0.9,3-0.4,3.9c0.1,0.3,0.1,0.6,0.2,0.9
		c-0.2-0.2-0.5-0.4-0.7-0.7c-0.1-0.1-0.1-0.3-0.2-0.4c-1,0.2-1.2,0.6-0.7,1.5c0.4,0.7,0.9,1.4,1.5,2.2c-0.6,0.1-1,0.1-1.4,0.1
		c-0.7,0.1-1.1,0.4-0.5,1.1c0.8,0.9,1.2,1.8,0,2.9c0.6,0.1,1.2,0,1.3-0.2c0.3-1,0.4-2,0.6-3c0.1-0.6,0.3-1.2,0.5-1.7
		c0.1-0.3,0.2-0.6,0.3-1c0.2-0.7,0.4-1.3,0.6-2C129.8,37.8,129.9,37.3,129.9,36.8c0-0.1,0-0.2,0.1-0.3c0.4-1.2,1.6-1.9,1.4-3.4
		c0-0.2,0.2-0.4,0.3-0.6c0.5-1.2,0.5-2.5,0.1-4c-0.2,0.6-0.3,0.9-0.4,1.1c-0.5-0.6-1-1.3-1.5-2c-0.1,0-0.2,0.1-0.3,0.1
		c0,0.4-0.1,0.8,0,1.1c0.4,1.1,0.1,2.4,1.1,3.4c0.2,0.2,0,0.7,0,1.3c-0.7-0.5-0.7-1.7-1.7-1.1C129.4,33.9,129.7,35.4,129.9,36.8z
		 M145.8,19.8c0.2,0.1,0.5,0.2,0.6,0.4c1.9,2.9,5.7,3,7.7,0.1c0.1-0.2,0.3-0.3,0.5-0.4c0.2,0.3,0.3,0.5,0.5,0.7
		c0.1,0,0.2-0.1,0.3-0.1c-0.2-0.6-0.3-1.2-0.5-1.7c-0.1,0-0.2-0.1-0.3-0.1c-0.9,1.4-1.9,2.6-3.8,2.5c-2.2-0.2-3.5-0.7-4-2.1
		c1.8,1.4,3.7,2.2,5.8,1c0.6-0.3,1.1-1,0.8-1.9c-0.9,0.6-1.8,1.3-2.7,1.6c-1,0.3-2.3-0.4-2.8-1.1c2.5,1.1,3.9,0.8,4.6-0.8
		c0.3-0.8,0.5-1.6-0.5-2.2c-0.4,1.7-0.9,2.6-1.7,2.5c-1.5-0.2-2.9,0-4.3,0c-0.5,0-1-0.5-1.5-0.5c-1.1-0.1-1.3-0.7-1.3-1.6
		c0-0.4-0.1-0.9-0.2-1.3c-0.2,0-0.3,0-0.5,0c-0.1,0.3-0.4,0.7-0.3,1c0.2,1.2,0.4,2.5,2.1,2.5c0.3,0,0.5,0.4,0.8,0.7
		c-0.2,0.2-0.4,0.5-0.7,0.7c-1.5,0.7-3.1,0.3-4.2-1c-0.1-0.2-0.3-0.3-0.5-0.4c-0.1,1.1,0.6,2,1.6,2.1c1.4,0.2,2.8,0.1,4-0.7
		c0.3-0.2,0.7-0.6,0.7,0.2c-1.9,1.4-4,1.6-6.3,1c0,0.1,0,0.3,0,0.4c0.8,0.3,1.5,0.5,2.4,0.9c-0.3,0.1-0.5,0.1-0.6,0.2
		c-0.3,0.2-0.6,0.4-0.9,0.6c0.4,0.1,0.8,0.3,1.1,0.2c0.7-0.2,1.6-0.3,2.1-0.8C144.3,21.6,145,20.6,145.8,19.8z M126.6,34.4
		c-0.6-1.4-2.3-1.2-3.1-2.4c-0.6,1.8-0.2,2.6,1.2,3.4c0.3,0.2,0.4,0.7,0.6,1c-0.3,0-0.7,0-1-0.2c-0.8-0.6-1.3-0.1-1.6,0.4
		c-0.2,0.3-0.2,1,0,1.4c0.3,0.5,1,0.9,1.4,1.3c0.2,0.2,0.2,0.6,0.2,0.9c-0.3,0-0.7,0-1-0.1c-0.1,0-0.2-0.2-0.3-0.3
		c-0.4-0.6-0.8-0.5-1.2,0c-0.4,0.5-0.7,0.9,0,1.4c0.5,0.4,1.1,0.8,1.5,1.3c0.2,0.3,0.1,0.8,0.1,1.3c-0.4,0-0.7,0-1.1,0
		c-0.4,0-0.9-0.1-1.3-0.1c0.1,0.5,0,1.1,0.2,1.5c0.3,0.5,1,0.8,1.2,1.2c0.2,0.4-0.1,1-0.1,1.6c-0.3-0.2-0.7-0.4-1-0.6
		c-0.3-0.2-0.6-0.4-0.9-0.6c-0.2,0.3-0.6,0.7-0.5,1c0.2,0.6,0.6,1.2,1,1.5c1.8,0.9,1.8,0.8,1.7,2.8c0.4-0.3,0.9-0.7,1.1-1.2
		c0.6-1.3-1-1.4-1.3-1.9c0.6-0.6,1.5-1.1,1.6-1.7c0.2-0.6-0.3-1.4-0.5-1.9c0.6-0.6,1.6-1.2,1.6-1.9c0.1-0.7-0.8-1.4-1.3-2.2
		c0.9-0.2,2.4,0,2.3-1.5c-0.1-0.9-1-1.7-1.5-2.5c0.1,0,0.4,0.1,0.7,0.2c1.1,0.2,2.2-0.9,1.8-2C127.1,35.1,126.8,34.8,126.6,34.4
		c0.8-0.2,1.8-0.3,1.9-1.4c0.1-1.2-0.8-1.7-1.7-2c-0.5-0.2-1-0.3-1.4-0.5c-1.1-0.5-1.5-1.6-0.9-2.9c-0.1,1.3,0.6,1.5,1.4,1.5
		c0.9,0,1.5,0.4,1.7,1.4c0,0.3,0.4,0.5,0.7,0.7c0.4-0.4,1-0.9,1-1.3c0-0.6-0.4-1.6-0.8-1.6c-1.5-0.3-2.5-1.2-3.5-2.2
		c-0.2-0.2-0.5-0.4-0.8-0.3c-0.2,0-0.4,0.4-0.5,0.7c-0.5,1-1,2.1-0.1,3.2c0.1,0.1,0,0.3,0,0.5c-0.1,1.1,0.5,1.7,1.4,2.1
		c0.3,0.2,0.7,0.3,1.1,0.4c0.7,0.2,1.2,0.5,0.6,1.3C126.6,34,126.7,34.2,126.6,34.4z M155.3,6.4C155.2,6.4,155.2,6.4,155.3,6.4
		c0.9-1.2,1-1.9,0.1-2.3c-1.4-0.7-3.4,0-4,1.4c-0.1,0.3-0.1,0.7-0.1,1.4c2.5-2.3,2.5-2.3,3-1.2c-0.3,0-0.6-0.1-0.8,0
		c-0.5,0.3-1.1,0.6-1.3,1.1c-0.1,0.3,0.5,0.9,0.9,1.2c0.4,0.3,0.9,0.3,1.4,0.4c0.9,0.2,1.7,1.1,1.4,1.9c-0.5,1.5,0,2.7,1,3.8
		c0.9,1,1,2.1,0.3,3.2c-0.8,1.4-1.7,2.6-0.5,4.2c-0.4-0.1-0.9-0.4-1-0.3c-0.2,0.3-0.4,0.7-0.3,1c0.2,0.9,0.6,1.8,1,2.7
		c0.2,0.3,0.6,0.5,0.9,0.8c0.1,0,0.3-0.1,0.4-0.1c-0.1-0.9-0.2-1.8-0.3-2.9c0.3,0.4,0.6,0.8,0.8,1.2c0.1,0,0.3,0,0.4,0
		c0-0.4-0.1-0.9-0.1-1.3c0.2-0.1,0.6-0.1,0.6-0.3c0.1-1.6,0.1-3.2,0.1-4.8c0-0.1-0.1-0.3-0.3-0.4c-0.9-0.4-0.6-0.9-0.3-1.5
		c0.8-1.7-0.6-4.1-2.4-4.2c1.4-1.6,1.4-1.6,0.4-3.7c-0.1-0.2-0.1-0.4-0.2-0.6C156.6,6.2,156,6.1,155.3,6.4z M135.4,14
		c-0.2,1.4,0.7,2.2,1.6,2.9c1,0.8,1.1,1.8,0.2,2.6c-0.6,0.6-0.6,1.1-0.3,1.8c0.2,0.4,0.2,0.9,0.1,1.3c-0.4,1.2-0.1,2,1.1,2.4
		c0.6,0.2,1,0.7,1.5,1.1c0.2,0.2,0.2,0.6,0.4,0.9c1.2-1.6,0.9-2.3-0.6-2.7c-0.7-0.2-1.5-0.2-1.4-1.3c0.1-0.7-0.2-1.9,0.1-2.1
		c1.1-0.7,0.5-1.2,0.2-1.9c-0.1-0.2-0.1-0.5,0.1-0.7c0.7-1.2,1.5-2.4,2.2-3.5c-1-0.5-2.2-1.1-3.4-1.6c0.5-0.1,0.9,0,1.4,0.1
		c0.9,0.2,1.7,0.5,2.6,0.6c1,0.2,2-0.6,2.2-1.5c0.2-1.1-0.3-2.1-1.4-2.3c-0.7-0.1-1.5,0.1-2.1,0.4c-0.6,0.3-1.2,0.8-1.8,1.2
		c-0.1-0.1-0.1-0.2-0.2-0.3c1-0.7,1.9-1.5,3-2c1.2-0.5,2.4-0.3,3.3,0.7c0.8,0.9,1.5,2,0.9,3.4c-0.7,1.6-0.6,1.9,1,2.3
		c0.7,0.1,1.5-0.3,2.3-0.4c-0.1-0.6-0.3-1.3-0.4-1.9c-0.1-0.6-0.4-1.3-0.1-1.8c0.4-0.7,1.1-1.4,1.8-1.9c1.8-1.3,4.3-0.1,4.6,2.1
		c-0.5-0.5-1-1-1.6-1.4c-0.9-0.7-1.8-0.6-2.7,0.1c-0.9,0.8-1.5,2.2-1.1,2.8c0.7,1,1.7,0.7,2.6,0.6c0.5-0.1,1-0.3,1.5-0.5
		c0.5-0.2,1.1-0.4,1.6-0.6c0,0.1,0.1,0.2,0.1,0.3c-0.9,0.5-1.8,1.1-2.6,1.6c0.4,0.7,0.8,1.4,1.3,2.1c0.4,0.7,0.9,1.1,1.5,0.1
		c0.2-0.3,0.6-0.6,0.9-0.8c1-0.8,1-1.3,0.4-2.4c-0.3-0.5-0.6-1.1-0.7-1.6c-0.3-1.9-1.3-3.3-3.1-4c-1-0.4-2-0.7-3-1
		c-1.1-0.3-1.2-0.6-0.9-1.6c0.2-0.6,0.3-1.2,0.2-1.9c0-0.2-0.4-0.6-0.7-0.6c-0.2,0-0.7,0.3-0.7,0.5c-0.1,0.7-0.1,1.3,0,2
		c0,0.4,0.2,0.8,0.3,1.4c-0.6-0.1-0.9-0.2-1-0.2c0-1,0-1.9,0-2.8c0-0.3-0.4-0.7-0.5-0.7c-0.3,0.1-0.7,0.3-0.8,0.6
		c-0.1,0.4,0,0.9,0.1,1.3c0.1,0.5,0.2,0.9,0.4,1.5c-0.6,0.1-1.1,0.1-1.6,0.1c0.2-0.9,0.4-1.8,0.4-2.7c0-0.3-0.4-0.8-0.8-1
		c-0.3-0.1-0.9,0-1,0.2c-0.2,0.3-0.2,0.9-0.1,1.3c0.1,0.3,0.4,0.6,0.6,1c0.5,0.8,0.3,1.2-0.6,1.5c-1.6,0.5-3.2,1.1-4.8,1.7
		c-0.9,0.4-1.4,1.2-1.3,2.2c0.2,1.1-0.2,1.9-1.1,2.5c-0.2-2.1,0.4-3.9,2.1-5.4c0.6-0.5,0.1-1.3-0.6-2c0,1.1-0.1,2-1.1,1.8
		c-0.2-0.7-0.3-1.1-0.4-1.6c0.5-0.1,1.3-0.6,1.9-0.4c0.6,0.1,1.1,0.8,1.6,1.2c0.1-0.1,0.2-0.2,0.3-0.2c-0.4-0.6-0.8-1.1-1.1-1.7
		c0,0,0.1-0.1,0.1-0.1c0.7,0.7,1.3,1.4,2,2c0.1-0.1,0.2-0.2,0.3-0.2C140.4,6,140,5,138.9,4.3c-0.6-0.4-1.2-0.5-1.7,0.1
		c-0.2,0.3-0.6,0.5-1,0.5c-2.2,0-2.5,0.3-2.2,2.5c0.3,0,0.6,0,1-0.1c-0.8,1.3-0.8,1.3-0.2,2.9c0.2,0.6-0.1,1.3-0.1,1.9
		c-0.1,0-0.3,0-0.4,0c0-0.2,0-0.4-0.1-0.5c-0.2-0.3-0.5-0.6-0.8-0.9c-0.3,0.3-0.6,0.6-0.8,0.9c-0.2,0.3-0.2,0.7-0.3,1.1
		c-0.3,1.1-0.2,2.1,0.8,2.8c0.5,0.4,0.8,1,1.1,1.6c0.1,0.4,0,0.9-0.1,1.3c0,0-0.4,0.1-0.5,0.1c-0.2-0.3-0.4-0.7-0.5-1.1
		c-0.2-0.4-0.2-0.9-0.4-1.3c-0.1-0.1-0.9,0-0.9,0c-0.1,0.7-0.3,1.6,0,2c0.9,1.1,0.9,1.9-0.2,2.7c0.9,0.9,1.6,0.6,2.4,0
		c0.3-0.3,0.6-0.7,0.9-0.8c1-0.2,0.9-0.8,0.7-1.5c-0.2-0.5-0.5-0.9-0.7-1.4C134.6,16.1,134.5,14.9,135.4,14z M160.3,114.2
		L160.3,114.2c-0.3,0.4-0.6,0.8-0.8,1.2c0.1,0.1,0.1,0.2,0.2,0.3c0.6-0.2,1.4-0.3,1.7-0.8c0.6-0.9,1-1.9,1.4-3
		c0.2-0.5,0.3-1.1,0.5-1.8c0.4,1.1,1.7,1.8,1,3.1c-0.3-0.1-0.5-0.2-0.6-0.2c-0.1,0.8-0.1,1.5-0.2,2.3c1.1,0.5,1.7-0.2,1.7-1.6
		c0-0.7,0.1-1.4,0.3-2c0.3-0.8,0.9-1.6,0.2-2.5c-0.1-0.1,0.1-0.4,0.2-0.6c0.5-1.1,1-2.1,1.5-3.1c0.6,1.3,0,2.5-1.1,4
		c1.1,0.1,1.9,0.3,2.7,0.1c0.8-0.2,1.4-0.7,2.1-1c-0.1,0.2-0.3,0.4-0.3,0.7c-0.1,2-2,2.9-2.7,4.5c0.3-0.9,0.5-1.8,0.8-2.8
		c0.4-0.2,1-0.4,1.6-0.6c0,0-0.1-0.1-0.1-0.1c-1.3,0.1-2.6,0.2-4.1,0.3c-0.1,0.8-0.1,1.7-0.2,2.6c-0.1,0-0.2,0-0.3,0
		c0.2,0.8,0.4,1.6,0.6,2.6c0.4-0.6,0.5-0.9,0.8-1.2c0.3-0.3,0.6-0.5,0.9-0.8c0,0.4-0.1,0.8-0.1,1.2c1.2,0.2,1.9-0.2,2.2-1.3
		c0.1-0.3,0.3-0.5,0.5-0.8c0,0.6,0,1.3,0,1.9c0.1,0,0.1,0,0.2,0c0.2-0.6,0.4-1.3,0.7-2.1c-0.4,0.1-0.7,0.1-0.9,0.2
		c0.2-0.4,0.3-0.8,0.5-1.1c1-1.2,2-2.4,1.9-3.9c0-1-0.3-2.2-0.9-2.9c-0.8-0.8-2.1-1.1-3.2-0.4c-0.9,0.5-1.2,0.1-1.6-0.6
		c-0.4-0.7,0-1,0.4-1.5c0.4-0.5,0.8-1.1,0.1-1.6c-0.6-0.6-1.3-0.6-2-0.1c-0.9,0.8-1.8,1.6-2.6,2.3c-0.2-0.5-0.3-0.9-0.4-1.3
		c1.5-0.2,2.2-0.9,2.1-2.3c0-0.5,0.1-1.1-0.1-1.6c-0.2-0.8-0.6-1.6-0.9-2.4c-0.1,0-0.2,0-0.3,0.1c-0.1,0.8,0.2,1.9-1.1,1.8
		c-1.6-0.1-1.1-1.3-1-2.3c-1,0.6-1.2,1.3-0.8,2.3c0.1,0.2,0,0.6-0.1,0.8c-0.9,0.8-0.7,1.7-0.2,2.6c-0.2,0.2-0.4,0.3-0.5,0.3
		c0.3,0.3,0.6,0.6,0.8,0.9c-0.4,0.2-0.7,0.5-1.1,0.7c0.8,0.9,1.7-1.3,2.6,0c-0.7,0.2-1.3,0.5-2,0.7c0,0.1,0.1,0.2,0.1,0.3
		c0.4,0,0.7,0,1.3,0c-0.6,0.5-1,0.8-1.5,1.3c0.5,0,0.8,0,1.1,0c-0.4,0.3-0.7,0.6-1,0.8c0,0.1,0.1,0.2,0.1,0.3
		c0.5-0.2,0.9-0.5,1.4-0.7c0,0,0,0.1,0.1,0.1c-0.5,0.4-0.9,0.8-1.4,1.2c0.1,0.1,0.2,0.2,0.2,0.3c0.7-0.6,1.4-1.1,2.1-1.7
		c0.1,0.1,0.2,0.2,0.3,0.3c-0.7,0.6-1.4,1.1-2.1,1.8c-0.2,0.2-0.1,0.6-0.1,0.9c0.3-0.1,0.7,0,0.9-0.2c0.3-0.3,0.6-0.8,0.8-1.2
		c0.1,0,0.1,0.1,0.2,0.1c-0.4,0.8-0.8,1.6-1.3,2.6c0.4,0,0.7,0,0.7-0.1c0.7-1,1.3-2,1.9-3c0,1.8-1.2,3.5-2.7,3.7
		c-0.6-0.9-1.3-1.8-1.9-2.8c-0.1,0,0.1-0.1,0.1-0.1c-0.1-1.5-0.2-2.8-0.3-4.2c-0.1,0-0.2,0-0.3,0c-0.3,2-0.6,4-0.9,5.9
		c-0.3,0.5-0.6,1-1.1,1.5c-1.4,1.6-2.6,3.4-4.5,4.5c2.1,0,4.1,0,6.3,0C158.9,114.5,159.4,114.2,160.3,114.2z M130.2,81.3
		c0,0.9-0.1,1.7-0.1,2.6c0.1,0,0.2,0,0.3,0c0.3-1.3,0.5-2.5,0.8-4.1C130.7,80.5,130.4,81,130.2,81.3c0.3-1.3,0.4-2.9,1.1-4
		c1.3-2,1.4-4.1,1-6.2c-0.6-3.4-1.3-6.8-0.9-10.3c0-0.3-0.1-0.8-0.3-1.1c-0.5-0.6-0.9-1.2-0.8-2c0-0.3-0.4-0.6-0.6-0.9
		c-0.2,0.3-0.5,0.5-0.6,0.8c-0.2,0.7-2.8,3.7-3.5,3.9c-0.7,0.2-1,0.6-0.9,1.3c0.2,2.2,0.3,4.4,0.6,6.5c0.2,1.9,0,3.7-0.5,5.5
		c-0.7,2.6-1.3,5.3-1.9,7.9c-0.1,0.5,0,1,0,1.6c0.1,0,0.2,0,0.2,0c0.2-0.9,0.4-1.9,0.5-2.8c0.1,0,0.2,0,0.3,0.1c0,0.4,0,0.8-0.1,1.2
		c-0.2,0.9-0.5,1.7-0.7,2.6c-0.1,0.3,0.1,0.7,0.2,1.1c0.3-0.3,0.6-0.5,0.8-0.9c0.2-0.5,0.1-1,0.2-1.5c0.1-0.4,0.2-0.9,0.3-1.3
		c0.2,0,0.3,0,0.5,0.1c-0.2,1.2-0.3,2.4-0.5,3.5c0.2,0,0.4,0.1,0.5,0.1c0.3-0.9,0.7-1.8,1-2.7c0,0.6,0,1.1-0.1,1.6
		c-0.3,2.3-1.4,3.1-3.7,2.6c-0.8-0.2-1.2,0.3-0.9,1.1c0.1,0.3,0.3,0.6,0.4,0.8c-0.6,0.4-1.1,0.6-1.5,1c-0.1,0.2,0.1,0.7,0.2,1
		c0.1,0,0.2,0,0.3,0c0.2-0.3,0.3-0.6,0.7-1.2c0,0.8,0,1.4,0,1.9c1.5-0.6,2.9-1.1,4.3-1.7c0.5-0.2,0.9-0.8,1.4-1.2
		c-0.1-0.1-0.2-0.1-0.2-0.2c-0.5,0.2-1,0.4-1.4,0.7c0.5-0.9,1.1-1.6,1.6-2.5c0.4-0.6,0.5-1.3,0.7-2c0.2-0.6,0.4-1.1,0.6-1.7
		c0.4-1.5,0.7-3,1.1-4.5C129.8,80.3,130,80.8,130.2,81.3z M170.1,93.2c0.5-0.8,0.6-1.4-0.3-1.8c-0.9-0.4-1.5-1.1-1.6-2.2
		c0-0.4-0.4-1.1-0.7-1.1c-1.7-0.1-2.4-1.3-2.5-2.7c-0.4-2.7-0.6-5.5-0.7-8.2c0-1.9,0.5-3.8,0.4-5.6c0-2.2-0.3-4.4-0.6-6.5
		c-0.1-0.5-0.4-1.1-0.7-1.5c-1.4-1.4-2.8-2.7-4.4-4.2c0,0.5,0,0.8,0,1.2c0.1,1,0.4,2.1,0.4,3.1c0,1.2-0.2,2.4-0.3,3.6
		c-0.1,1.8-0.3,3.6-0.4,5.4c0,0.1,0,0.2-0.1,0.2c-1.2,2.6,0.4,4.8,1.4,6.9c0.9,1.9,1.5,3.9,1.9,5.9c0.1,0.5,0.3,1,0.5,1.5
		c0.2,0.6,0.5,1.1,0.8,1.6c0.7,1.1,1.3,2.2,2.2,3.2c0.7,0.8,1.4,0.6,1.5-0.4c0.1-0.7,0-1.5,0-2.3c0.5,0.5,0.9,1,1,1.6
		c0.1,0.6,0,1.2-0.1,2C169.1,91.4,169.4,91.5,170.1,93.2z M143.5,65.7c-0.1,1.3-0.3,2.6-0.2,3.9c0.2,3.1,0.5,6.2-0.5,9.3
		c-0.5,1.7,0,3.7,0.1,5.6c0.1,2.5,0.3,4.9,0.5,7.6c1.5,0,2.7,0,3.9,0c1.5,0,2.2-1.2,1.4-2.4c-0.9-1.4-0.6-2.6-0.1-4
		c0.9-2.2,1-4.4,0.5-6.7c-0.5-2.3-0.8-4.8-1-7.1c-0.2-1.9,0-3.8,0-5.8C146.4,65.9,145.1,65.8,143.5,65.7z M118.9,104.7
		c-0.1,0.3-0.1,0.5-0.2,0.6c-1,1.2-1.4,2.4-0.4,3.8c0.1,0.1-0.4,0.6-0.7,0.9c-0.5,0.4-1.4,0.8-1.4,1.2c0,1.2-0.3,2.6,1,3.4
		c0.3,0.2,0.8,0.2,1.2,0.3c0.1-0.1,0.1-0.3,0.2-0.4c-0.5-0.4-0.9-0.8-1.5-1.4c0-0.3,0.1-0.8,0-1.3c-0.3-0.8,0-1.1,0.7-1.2
		c1.9-0.3,3.2-1.2,3.1-3.2c0.6,0.5,1.3,0.9,1.9,1.4c1.4,1.3,1.7,1.3,2.3-0.3c1.1,0.5,2.2,1,3.3,1.5c1.2,0.5,2.4,0.9,3.6,1.5
		c1.3,0.7,2.1,2.4,1.7,4c0.6-0.4,1.2-0.5,1.4-0.9c0.4-0.8-0.4-2-1.6-2.6c0.6-0.8,0.1-1.2-0.7-1.4c-0.6-0.2-1.2-0.6-1.5-1.1
		c-0.7-1.2-1.1-2.5-1.7-3.7c1.1-0.2,2.1-0.4,3-0.7c0.4-0.1,0.8-0.6,1-1c0.2-0.8,0.3-1.6,0.4-2.4c0.1-0.5,0-1.1-0.1-1.7
		c1.4-0.4,0.7-1.2,0.1-1.8c0.5-0.6,1-1.1,1.4-1.6c-0.1-0.1-0.2-0.2-0.3-0.3c-0.3,0.1-0.6,0.2-0.8,0.4c-0.7,1-1.7,1.7-2.2,3
		c-0.3,0.8-0.5,1.4-0.2,2.2c0.3,0.8,0.4,1.6-0.3,2.2c-0.8,0.6-1.6,0.5-2.5,0c-0.7-0.3-1.5-0.4-2.3-0.4c-1.1,0-2.2,0.1-3.4,0.1
		c0-0.1,0-0.2,0-0.3c0.3-0.2,0.6-0.4,0.9-0.6c0-0.1-0.1-0.1-0.1-0.2c-0.3,0-0.5,0-0.8,0c0.2-0.4,0.4-0.7,0.6-1.1
		c-0.6,0-0.9,0.1-1.4,0.1c0.4-0.5,0.7-0.8,1.1-1.2c-0.4-0.1-0.7-0.1-0.9-0.1c0.1-0.3,0.2-0.7,0.5-1.2c-0.5,0.3-0.7,0.5-1.1,0.7
		c0.5-1.6,0.5-1.6-0.2-1.6c0.2-0.3,0.1-0.7-0.5-2.1c-0.3,0.3-0.6,0.5-0.8,0.7c-0.1-0.4,0-1.2-0.3-1.3c-1-0.6-2.6,0-3,1.2
		c-0.4,1.3-0.8,2.6-1,3.9c-0.1,0.4,0.4,0.9,0.8,1.6c0.4-1,0.8-1.6,0.8-2.2c0-0.6-0.2-1.2-0.4-2c0.3,0.3,0.6,0.4,0.6,0.6
		c0.1,1.4,0.6,2.8,0,4.3C117.9,103.6,117.6,104.5,118.9,104.7z M136.6,82.6c-0.1,0.8-0.3,1.6-0.4,2.5c-0.2,1.1-0.5,2.2-2.1,1.6
		c-0.1,0.6-0.2,1.1-0.3,1.6c0.5,0.1,0.9,0.2,1.3,0.3c-0.2,0.8-0.3,1.5-0.5,2.3c-0.3-1-0.7-1.8-1.7-1.5c-1,0.3-0.9,1.3-0.8,2.1
		c0,0.3,0.6,0.5,0.9,0.8c0.1-0.1,0.2-0.2,0.3-0.3c-0.1-0.3-0.3-0.7-0.4-1c-0.2-0.8,0.5-1.5,0.9-0.9c0.3,0.5,0.3,1.2,0.5,2.1
		c0.3,0.2,0.7,0.3,0.9-0.6c0.3-1.6,0.6-3.3,1.4-4.7c0.7-1.3,1.2-2.5,1-3.9c0-0.2,0-0.5,0.1-0.7c0.1,0,0.1,0,0.2,0
		c0.2,0.9,0.3,1.8,0.5,2.8c1.7-0.7,0.5-2,0.9-3.3c0.4,1.2,0.6,2.1,0.9,3c0.1,0,0.2,0,0.3-0.1c0.8-2.1-0.3-4.2-0.4-6.3
		c0.2,0.4,0.5,0.7,0.7,1.1c0.1,0,0.2-0.1,0.3-0.1c-0.2-0.6-0.3-1.2-0.5-1.7c-1.6-3.3-1.7-6.8-1.1-10.3c0.4-2.1,0.4-4-1.5-5.4
		c-1-0.8-2.6-1.3-3.3-0.8c-1,0.7-0.9,1.9-0.8,2.9c0.1,1.2,0.4,2.4,0.6,3.6c0.3,1.9,0.8,3.9,0.9,5.8c0.2,3.7,0.1,7.5,0.1,11.2
		c0,0.1-0.1,0.2-0.1,0.3c-0.2-0.2-0.5-0.3-0.8-0.6c-0.1,0.7-0.2,1.2-0.3,1.9C136.2,85.6,136,83.9,136.6,82.6z M157.7,92.1
		c0.1-0.1,0.2-0.2,0.2-0.2c0-0.2-0.1-0.4-0.1-0.6c0-0.3,0.1-0.6,0.2-0.8c0.2,0.3,0.4,0.5,0.6,0.8c0.1,0.2,0.1,0.5,0.2,0.8
		c0.1,0,0.3-0.1,0.4-0.1c-0.2-0.6-0.3-1.3-0.6-1.9c-0.1-0.2-0.8,0-1.3,0c0-0.1-0.1-0.4,0-0.6c0.5-1.2,0.1-1.9-1.1-2.5
		c-0.3-0.1-0.6-0.7-0.6-1.1c0-0.7,0.5-1.5,0.4-2.2c-0.1-1.2-0.3-2.5-0.7-3.7c-1.1-2.9-1.3-5.7-0.1-8.7c1.2-3.4,2.2-7,0.9-10.7
		c-0.1-0.4-0.6-0.9-0.9-0.8c-0.5,0-0.9,0.5-1.3,0.8c-0.7,0.5-1.3,1.1-2,1.3c-0.7,0.2-0.8,0.5-0.7,1.1c0.2,0.9,0.3,1.9,0.4,2.8
		c0.4,5.6-0.7,10.9-1.7,16.4c-0.1,0.7,0.1,1.4,0.2,2.1c0,0.5,0,1.1-0.2,1.6c-0.1,0.5-0.5,1.1-0.6,1.6c-0.1,0.4,0.1,0.8,0.2,1.2
		c0.1,0,0.2,0,0.3-0.1c0.7-4.6,1.5-9.1,2.3-13.8c0.2,0.1,0.2,0.1,0.2,0.2c0,0.3,0,0.5,0.1,0.8c0.3,2.6-0.2,5.3,1.3,7.6
		c0.1,0.2,0,0.5,0.1,0.8c0.2,1.2-0.2,2.7,1.6,3c0.1,0,0.2,0.1,0.3,0.2c0.4,1.2,0.8,2.3,1.3,3.6C157,91.4,157.4,91.8,157.7,92.1z
		 M183.7,29c0.1-0.1,0.1-0.2,0.2-0.3c-0.5-2.1-2.4-2.2-4.3-2.5c1-2.1-1-2.1-1.8-3c0.8-1.1,1.5-2.1,2.2-3.1c0.5-0.6,1.1-0.7,1.5,0
		c0.3,0.7,0.4,1.6,0.3,2.4c0,0.6-0.3,1.2-0.5,1.9c-0.2-0.1-0.6-0.4-1.1-0.7c0.4,0.7,0.7,1.4,1.1,2c1,0,2.1,0.1,2.6,1.5
		c0.2,0.6,0.7,0.5,1,0c0.5-0.8,0.3-2-0.7-2.8c-1.1-0.9-1.5-2-1.7-3.3c-0.1-0.9-0.7-1.9-1.5-2.4c-1.2-0.7-2.6-1-4-1.5
		c-0.8-0.3-1.5-0.2-2,0.5c-0.2,0.4-0.6,0.8-1,0.9c-1,0.3-0.9,0.9-0.6,1.7c0.2,0.7,0.5,1.2,1.5,0.9c1.1-0.4,2,0.1,2.7,1.5
		c-0.5-0.1-0.9-0.2-1.3-0.3c-0.8-0.1-1.5-0.2-2.3-0.2c-0.8,0-1,0.6-0.9,1.3c0.1,0.8,0.2,1.6,0.4,2.6c0.8-0.1,1.7-0.2,2.9-0.4
		c-1.1,0.9-1.6,2.2-3.2,1.8c-0.1,0-0.4,0.4-0.4,0.6c0,1,0.1,2,0.1,3c0,1,0.4,1.7,1.3,2.2c0.5,0.3,0.9,0.9,1.3,1.3
		c0.4,0.4,0.6,1.1,1,1.2c0.5,0.1,1.1-0.3,1.5-0.5c-0.3-1.1-0.6-2-0.9-2.9c-0.4,0-0.9,0.1-1.4,0c-0.6-0.2-1.3-0.5-1.7-1
		c-0.2-0.3,0.1-1.4,0.3-1.4c1-0.2,1-0.9,1.2-1.6c0.2-0.7,0.5-1.3,0.8-1.9c0.5-1,1.4-1,2-0.5c1.2,0.9,2,2.1,2,3.8
		c-0.5-0.7-1.1-1.5-1.6-2.2c-0.1,0.1-0.2,0.1-0.3,0.2c0.7,1.2,1.4,2.4,2.6,3.2c0.1-0.1,0.2-0.1,0.3-0.2c-0.2-0.8-0.3-1.6-0.5-2.5
		c0.5,0.5,0.9,1,1.4,1.5c0.1-0.1,0.3-0.2,0.4-0.3c-0.6-0.7-1.1-1.5-1.7-2.2c0.1-0.1,0.2-0.2,0.3-0.3C182.1,27.7,182.9,28.3,183.7,29
		z M114.4,20.6c1-0.4,2.1-0.7,3.1-1.1c0.8-0.3,0.8-1,0.2-1.5c-1.1-0.8-2.4-1.5-3.7-2.4c-0.4,1.4-1.5,1.8-2.7,2.1
		c-1.5,0.4-2,1.4-2.2,2.9c-0.2,1-0.4,2.1-1.5,2.7c-0.6,0.3-1,1.1-1.3,1.7c-0.4,0.6-0.3,1.3,0.5,1.6c0.7,0.3,1.4,0,1.6-0.8
		c0.2-0.9,0.7-1.6,1.6-1.9c0.9-0.4,1-1.7,0.4-2.2c-0.8-0.6-0.8-1.4-0.1-2.1c1-1,2.8-0.4,3.5,1.3c-0.2,0-0.4,0-0.6,0.1
		c-1.6,0.2-1.8,0.5-2,2.1c0,0.4-0.3,0.7-0.6,1c-0.3,0.3-0.6,0.6-1,0.9c0.1,0.1,0.1,0.2,0.2,0.3c0.8-0.4,1.6-1,2.5-1.2
		c0.9-0.2,1.9-0.1,3.2-0.2c-0.4,0.4-0.5,0.6-0.6,0.8c0,0.1,0.1,0.2,0.1,0.3c0.8-0.3,1.6-0.6,2.4-0.9c0.1,0.1,0.2,0.1,0.2,0.2
		c-0.5,0.5-0.9,1.2-1.5,1.4c-0.6,0.2-1.4,0.1-2.3,0.1c0.8,0.9,1.7,1.8,2.4,2.8c0.3,0.5,0.3,1.2,0.4,1.9c0,0.2-0.4,0.5-0.4,0.7
		c0.1,1.3-0.6,1.6-1.7,1.7c-0.9,0.1-1.8,1.4-1.6,2.2c0.1,0.2,0.5,0.5,0.6,0.4c0.6-0.3,1.2-0.7,1.9-1.1c-0.1-0.1,0.1,0,0,0
		c0.9-0.8,1.7-1.5,2.4-2.1c0.3-1.1,0.7-2.2,1-3.4c0.1-0.2,0-0.5-0.1-0.7c-0.9-1.7-0.6-3.3,0-4.6C118,21.1,116.5,20.3,114.4,20.6z
		 M173.4,15c-0.1-0.1-0.3-0.3-0.4-0.4c0.7-1.2,0.6-1.7-0.2-2.4c-1.7-1.2-4.6-0.6-5.5,1.3c-0.3,0.5-0.4,1.1-0.6,1.8
		c-1.8-0.8-3.5-0.7-4.9,0.8c-0.5,0.6-1,1.2-1.5,1.9c-0.1,0.2,0,0.6,0.2,0.8c0.1,0.1,0.5,0,0.7-0.1c1-0.8,2-1.6,3.3-1.7
		c0.2,0,0.4-0.4,0.6-0.7c0,1.3-0.8,1.7-1.7,1.9c-0.5,0.1-1,0.3-1.5,0.5c-0.5,0.2-0.9,0.6-1.3,0.9c-0.2,0.1-0.3,0.5-0.3,0.6
		c0.4,0.4,0.8,0.8,1.2,1.1c0,0,0.4-0.3,0.4-0.5c0-1,0.7-0.9,1.3-1c1.7-0.1,2.6-1,2.5-2.7c0-0.4,0-0.9,0-1.3c0.1,0,0.3,0,0.4,0
		c0,0.4,0,0.9,0.1,1.3c0.1,0.4,0.3,0.8,0.5,1.3c0.1,0,0.2-0.1,0.3-0.1c0.1-0.3,0.2-0.6,0.4-0.8c0.1,0.1,0.3,0.1,0.4,0.2
		c-0.4,0.7-0.7,1.4-1.1,2.2c-0.3,0.6-0.7,1.2-0.8,1.8c-0.1,0.3,0.4,1,0.8,1.1c0.6,0.2,0.7-0.3,0.9-0.9c0.2-0.6,0.5-1.2,0.9-1.6
		c0.8-0.7,2.4-0.1,2.6-1.8c0.2,0.2,0.4,0.4,0.7,0.8c0.1-0.6,0.2-1,0.2-1.4c0-0.8,0.4-1,1.1-0.9c1.8,0.3,2.6-0.9,1.9-2.6
		c-0.2,0.1-0.5,0.2-0.7,0.3c0-0.4,0-0.7,0.1-1.3C174.1,14.1,173.8,14.5,173.4,15z M118,13.2c-0.8,0.1-1.7-0.1-2.1,0.3
		c-0.4,0.3-0.5,1.2-0.3,1.7c0.2,0.5,0.8,0.8,1.4,1.1c0.6,0.3,1.3,0.3,1.9,0.6c1.1,0.5,1.2,1.3,0.4,2.2c-0.3,0.3-0.7,0.5-1.1,0.8
		c1.3,0.4,2.4,0,2.7-0.9c0.2-0.7,0.2-1.5,0.1-2.1c-0.2-0.6-0.8-1.1-1.3-1.8c1.5,0.7,2.1,2,2.1,3.4c0.1,2-1.6,2.3-3,2.9
		c0.4,0.2,0.8,0.2,1.1,0.4c0.4,0.2,1,0.6,1,0.9c0.2,1.3-0.8,0.7-1.5,0.6c-0.1,1.3,0.6,1.5,1.5,1.6c1.1,0.1,1.4,0.6,1,1.6
		c-0.1,0.2-0.1,0.4-0.1,0.6c0.1,0.1,0.2,0.1,0.2,0.2c0.3-0.3,0.7-0.5,0.9-0.8c1.3-2-0.5-3-1.5-4.3c0.5,0.1,0.8,0.3,1.2,0.5
		c0.3,0.1,0.9,0.4,1,0.2c0.3-0.3,0.5-0.8,0.4-1.1c-0.2-0.8-0.6-1.5-0.9-2.3c0.3-0.1,0.6-0.2,1.1-0.3c-0.3-0.5-0.6-0.9-0.9-1.3
		c1.2-0.9,1.5-1.5,1.1-2.9c-0.2-0.8-0.6-1.7-0.8-2.5c-0.4-1.3-1.2-1.8-2.5-1.3c-0.5,0.2-0.9,0.5-1.3,0.8c-0.6,0.4-1.1,0.8-1.8,0.1
		c-0.2-0.2-0.5-0.1-1.1-0.2C117.4,12.5,117.7,12.9,118,13.2z M132.7,97.3c0.7,0.2,1.2-0.4,1.3-1.1c0.1-0.9-0.7-0.9-1.3-0.9
		c-1.5,0-3.1,0-4.6,0.1c-1.8,0.1-3.5,0.3-5.4,0.5c0.2,0.4,0.5,0.6,0.5,0.7c0,0.5-0.2,1-0.1,1.4c0.5,1.5,1,3,1.7,4.5
		c0.2,0.3,0.9,0.5,1.4,0.6c0.5,0.1,1.1,0.2,1.7,0.2c0.3,0,0.6-0.1,0.5-0.1c0.8,0.3,1.4,0.6,2,0.8c0.8,0.2,1.1-0.3,0.9-1
		c-0.2-0.8-0.6-1.5-0.9-2.2c0.9-0.4,1.4-0.9,1-1.8C131.8,98.4,132.2,97.9,132.7,97.3z M134.9,104.5c0,6.3,5.1,11.5,11.4,11.5
		c6.3,0,11.5-5.1,11.5-11.4c0-6.2-5.1-11.4-11.3-11.4C140,93.2,134.9,98.2,134.9,104.5z M117.9,112.9c0.1,0,0.2-0.1,0.3-0.1
		c0.2,0.2,0.4,0.4,0.5,0.6c0.5,1,1.1,1.7,2.3,1.7c2.9-0.1,5.8,0,8.8-0.1c0.4,0,1.2-0.5,1.2-0.7c0-0.6-0.2-1.3-0.6-1.7
		c-0.6-0.4-1.4-0.5-2.1-0.7c-0.4-0.4-0.9-0.8-1.3-0.8c-1-0.1-2.1-0.1-3.1-0.2c-0.2,0-0.5-0.2-0.6-0.4c-0.7-0.9-1.7-0.9-2.6-0.2
		c-0.5,0.4-1,0.8-1.6,0.9C117.9,111.6,117.7,112.1,117.9,112.9z M120.6,34.9c-0.2-0.3-0.4-0.4-0.6-0.6c-0.8-0.8-1.2-0.8-1.6,0.2
		c-0.5,1.2-0.3,2,1,3c0.5,0.4,1.5,0.8,0.8,1.6c-0.6,0.8-1.1-0.2-1.6-0.5c-0.3-0.2-0.6-0.2-1-0.3c0,0.4-0.1,0.8,0,1.1
		c0.4,0.8,1,1.4,1.5,2.2c0.2,0.3,0.1,0.7,0.1,1c-0.4-0.1-0.7-0.2-1.1-0.4c-0.2-0.1-0.2-0.3-0.4-0.4c-0.4-0.3-0.9-0.5-1.3-0.8
		c0,0.6,0,1.2,0,1.7c0,0.2,0.2,0.3,0.3,0.5c0.5,0.7,1,1.3,1.4,2.1c0.1,0.3-0.2,0.8-0.4,1.3c-0.3-0.2-0.7-0.4-0.9-0.7
		c-0.3-0.3-0.4-0.7-0.7-1.2c-0.9,1.2-0.9,1.7,0.1,2.3c1,0.6,1.8,1.3,1,2.6c0.4-0.4,0.8-0.7,1.3-1.1c-0.8-0.8-0.7-1.3,0.3-1.7
		c1.1-0.4,1.1-1.5,0.2-2.3c-0.4-0.3-0.8-0.7-1.2-1.1c1.1,0,2.2,0.7,2.9-0.6c0.8-1.5-0.8-1.9-1.6-2.7c0.4,0,0.6-0.1,0.8-0.1
		c0.8,0,1.4-0.5,1.6-1.3c0.2-0.8,0-1.4-0.8-1.9c-0.3-0.2-0.5-0.3-0.7-0.6C119.4,35.6,119.4,35.3,120.6,34.9z M124.7,17.9
		c0,0.8-0.1,1.6-0.1,2.5c0,0.1,0,0.3,0.1,0.3c1,0.5,1.3,1.9,2.7,1.9c0.2,0,0.6,0.5,0.7,0.8c0.1,0.2,0,0.6,0,1.3
		c0.6-0.5,1.2-0.8,1.3-1.1c0.1-0.5-0.1-1.1-0.3-1.6c-0.2-0.5-0.6-0.9-1-1.5c1.9-0.1,2.3-0.8,1.6-2.3c-0.4-0.8-1-1.5-1.6-2.4
		c1.8,0.2,1.6,2.4,3,2.9c0.1-0.6,0.2-1.4-0.2-1.8c-1.1-1.2-2.4-2.1-4-2.2c-1.5-0.1-1.8,0.3-2,2c-0.1,1,0.5,1.6,1.7,1.7
		c0.4,0,0.8-0.1,1.1,0.1c0.5,0.2,0.9,0.5,1.4,0.8c-0.1,0.2-0.1,0.4-0.2,0.5c-0.9-0.1-1.9,0-2.7-0.3
		C125.6,19.1,125.1,18.4,124.7,17.9z M167.9,86.5c0.1,0,0.1-0.1,0.2-0.1c0-0.1,0-0.3-0.1-0.4c-0.7-2-1.4-4-2-6.1
		c-0.2-0.5-0.2-1.1-0.1-1.6c0.7-3.7,1.3-7.3,1-11.1c-0.1-0.7-0.2-1.4-0.4-2c-0.1-0.3-0.6-0.4-0.8-0.7c-0.1,0.3-0.3,0.7-0.3,1
		c0,0.7,0.3,1.4,0.3,2c-0.2,2.9-0.4,5.7-0.7,8.6c-0.3,3-0.4,6,0.6,8.9c0.4,1.1,1,1.8,1.9,2.4c-0.4-0.9-0.9-1.9-1.3-2.8
		c0.1,0,0.2-0.1,0.3-0.1C167,85.2,167.4,85.8,167.9,86.5z M170.2,44.5c0.6-0.7,1.2-1.4,1.9-2.1c0.5-0.5,1-0.9,0.5-1.6
		c-0.6-0.7-1.2-0.4-1.7,0.1c-0.3,0.3-0.5,0.8-0.8,1.2c-0.2,0.3-0.6,0.5-0.9,0.7c-0.2-0.3-0.7-0.7-0.6-0.9c0.2-0.6,0.6-1.2,1-1.7
		c0.3-0.4,0.7-0.7,0.9-1.2c0.1-0.2,0-0.6-0.2-0.7c-0.1-0.1-0.5,0-0.7,0.1c-0.9,0.6-1.7,1.3-2.7,2.1c0-0.4-0.3-0.9-0.1-1.2
		c0.3-0.6,0.8-1.1,1.4-1.5c0.7-0.5,1.2-1,0.9-2c-0.7,0.2-1.3,0.5-1.9,0.7c-0.6,0.2-1.2,0.3-1.8,0.5c-0.1-0.1-0.2-0.2-0.2-0.3
		c0.5-0.4,1-0.8,1.5-1.3c0.3-0.2,0.7-0.7,0.6-0.9c-0.2-0.3-0.6-0.8-0.9-0.8c-1.4-0.1-2.5,1.6-2,2.9c0.4,1.1,0.8,2.1,1.2,3.2
		c0.1,0.3,0.4,0.6,0.6,0.8c0.6,0.7,1.1,1.5,1.7,2.2c0.3,0.4,0.7,0.7,1.1,1C169.4,44.3,169.8,44.4,170.2,44.5z M140.8,76.7
		c0.3-0.2,0.4-0.3,0.5-0.4c0.4-1.4,0.8-2.9,1.2-4.3c0.7-2.7-0.7-5.5,0.4-8.3c0.1-0.3-0.9-1.1-1.4-1.7c-0.4,0.4-1.1,0.7-1.2,1.2
		c-0.2,1.4-0.3,2.8-0.2,4.2c0.1,2.6,0.4,5.1,0.6,7.7C140.7,75.6,140.8,76,140.8,76.7z M162.1,32.7c-0.7,0.9-1.2,1.6-1.8,2.4
		c-0.2-1-0.1-1.8,0.6-2.5c0.9-0.9,1-2.9,0.3-3.7c-1.1,0.7-1.4,1.4-1.7,3.3c-0.3-1.1-0.2-2.1,0.5-3.1c0.6-0.8,0.9-1.7,0.6-2.9
		c-0.4,0.4-0.7,0.7-1,0.9c1.3-1.4,1.1-3.2,1.1-4.9c-0.4,0.8-0.7,1.6-0.9,2.4c-0.4,1.6-0.7,3.2-1.2,4.8c-0.3,1-0.3,1.8,0.3,2.7
		c0.4,0.6,0.6,1.4,0.7,2.2c0.1,1.2,0.2,2.5,1.2,3.3c0.1,0.1,0.2,0.4,0.2,0.6c0.2,0.6,0.3,1.1,0.4,1.7c0.4-0.5,0.9-0.9,1.2-1.4
		c0.4-0.7,0.6-1.4,0.9-2.1c-0.2-0.1-0.3-0.2-0.5-0.2c-0.5,0.7-0.9,1.3-1.4,2c-0.8-1-0.2-1.9,0.3-2.8
		C162.3,34.6,162.6,33.8,162.1,32.7z M150.9,23.5c-0.1,0-0.2-0.1-0.4-0.1c-0.5,0.7-1,1.4-1.5,2.1c-0.7,1.1-1.7,1.4-3,1.3
		c-1.2-0.1-2.1-0.8-2.8-1.8c-0.4-0.5-0.8-1-1.2-1.4c-0.1,0-0.2,0.1-0.4,0.1c-0.1,0.8-0.3,1.5-0.4,2.3c-0.3,2.3,0.7,3.1,3.1,2.7
		c-0.2-0.2-0.5-0.3-0.7-0.5c0.6-0.2,1.2-0.4,1.8-0.5c-0.1,0.1-0.1,0.2-0.2,0.3c0.3,0.3,0.5,0.7,0.8,0.8c0.6,0.1,1.5,0.3,1.4-0.9
		c0.4,0,0.9,0.1,1.3,0.1c0.1,0.1,0.1,0.2,0.2,0.3c-0.3,0.1-0.6,0.2-0.9,0.3c1.3,0.6,2.3,0.1,2.8-0.8
		C151.8,26.3,151.2,24.9,150.9,23.5z M167.3,96.5c0,0,0-0.1,0-0.1c-0.3,0-0.5,0.1-0.7,0c-0.4-0.2-0.8-0.4-1.3-0.6
		c-0.1,0.7,0,1.2,0.2,1.6c0.1,0.2,0.2,0.4,0.3,0.7c0.1,0.3,0,0.7,0.1,1c0.3,0,0.6,0,0.9-0.1c-0.1,0.1-0.1,0.2-0.2,0.3
		c0.9,0.5,1.8,1,2.5,1.4c0,1,0,2,0,3c0.8,0,1.7,0,2.4,0c0-0.8-0.1-1.4-0.1-2.1c1-0.3-0.1-0.7-0.2-1.1c0.3-0.2,0.5-0.3,0.7-0.4
		c-0.3-0.2-0.5-0.4-0.8-0.6c0.4-0.2,0.6-0.3,0.8-0.4c0-0.1,0.1-0.2,0.1-0.4c-0.6-0.3-1.2-0.5-2-0.9c-0.1-0.5-1-1.2-1.9-1.1
		C167.8,96.8,167.5,96.6,167.3,96.5z M171.2,25c-1,1-1.8,1.1-2.8,0.6c-0.3-0.1-0.9-0.1-1,0.1c-0.3,0.8-0.6,1.6-0.6,2.4
		c0,0.4,0.5,0.9,0.9,1.2c0.4,0.2,0.9,0,1.4-0.1c0-0.1,0-0.2,0-0.3c-0.4-0.3-0.8-0.5-1.4-0.9c0.5-0.3,0.9-0.6,1.3-0.7
		c2.2-0.2,3.2-1.5,3.3-3.6c0-0.2,0-0.5-0.1-0.8c-0.3,0-0.7,0-0.8,0.1c-0.4,0.4-0.7,0.9-1.1,1.3c-0.1,0-0.2,0-0.3,0
		c0.1-0.5-0.1-1.1,0.2-1.4c0.5-0.6,1.1-1,1.7-1.5c0.3-0.3,0.5-0.7,0.5-1c0-0.2-0.3-0.7-0.3-0.6c-0.3,0.1-0.7,0.3-1,0.4
		c-0.7,0.4-1.4,1-2.2,1.4c-0.7,0.3-0.8,0.7-0.6,1.3C168.8,24.2,169.3,25.2,171.2,25z M149.6,75.1c1.4-1.9,1.6-7.8,0.6-11.9
		c-1.6-0.1-2.2,0.5-2,1.9c0.1,1.2,0.1,2.5,0.3,3.7C148.8,70.9,149.2,72.9,149.6,75.1z M150.6,92c0.2,0,0.3,0.1,0.5,0.1
		c0-0.3,0-0.6,0.1-0.9c0.1-0.3,0.2-0.7,0.3-1c0.2,0.3,0.5,0.5,0.6,0.8c0.1,0.2,0.1,0.5,0.2,0.7c0.1,0,0.2,0,0.3,0c0-0.7,0-1.4,0-2.1
		c0.1,0,0.2-0.1,0.3-0.1c0.2,0.6,0.5,1.2,0.6,1.8c0.2,0.6,0.2,1.2,1.2,0.7c-0.2-0.4-0.4-0.7-0.6-1.1c-0.2-0.5,0.7-1.2,0.9-0.8
		c0.3,0.5,0.2,1.3,0.3,2c0.4-0.4,0.7-0.9,0.7-1.4c0-1.3-1.1-1.2-2.1-1.3c0.2-0.3,0.5-0.5,0.5-0.7c0-0.4-0.1-0.7-0.2-1.1
		c-0.3,0.2-0.6,0.3-0.8,0.5c-0.2,0.3-0.3,0.7-0.5,1c-0.1,0-0.3,0-0.4,0c0-3.1,0.3-6.2-0.8-9.1c-0.8,2.8-0.5,5.6-0.2,8.5
		c-0.2-0.3-0.4-0.6-0.6-0.9c-0.1,0.1-0.2,0.1-0.3,0.2C150.7,89.1,150.6,90.5,150.6,92z M121.6,32.3c1.9-1.2,2-2.8,0.4-4.2
		c-0.3-0.3-0.4-0.7-0.7-1c-0.3-0.3-0.6-0.6-1-0.9c-0.3-0.2-0.6-0.4-0.9-0.6c-0.2-0.1-0.4-0.2-0.7-0.4c-0.1,0.1-0.2,0.2-0.3,0.4
		c1,1.3,1.9,2.7,3.1,3.8c0.9,0.9,0.5,1.4,0.2,1.9c-0.6-0.6-1.1-1.3-1.6-1.8c-0.2-0.2-0.6-0.3-0.7-0.2c-0.2,0.2-0.4,0.5-0.4,0.8
		c0.1,0.5,0.2,1,0.5,1.4c0.4,0.5,0.9,1,1.4,1.4c0.8,0.7,0.8,1.5,0.3,2.4c-0.2,0.2-0.3,0.5-0.5,0.7c1.3,0.4,2.1,0.1,2.4-0.9
		C123.5,33.9,123,33,121.6,32.3z M145.7,44.9c-0.6,0.1-1,0.1-1.4,0.2c-0.4,0.1-0.8,0.2-1.2,0.3c0.1,0.1,0.2,0.2,0.3,0.2
		c-0.3,0.5-0.4,1.2-0.8,1.6c-0.6,0.6-1.3,2.4-1,3.1c0.1,0.3,0.5,0.5,0.8,0.7c0.2-0.3,0.3-0.5,0.5-0.8c0.3-0.5,0.5-1.1,0.8-1.6
		c0.4-0.6,0.9-1.2,1.3-1.9c0,0.1,0.1,0.3,0.3,0.5c0.7,0.9,0.8,2.3,2.3,2.6c1.5,0.3,2,1,2.1,2.5c1-0.3,1.7-1.4,1.1-1.8
		c-1.3-0.7-1.8-2.1-2.9-2.6C146.6,47.4,145.7,46.6,145.7,44.9z M157.9,61.8c-0.8,0.8-2.4,14.4-1.9,15.7
		C158.3,72.3,158.5,67.1,157.9,61.8z M138.4,115.1c-1.3-1.8-2.4-3.3-3.6-5.1c-0.1-0.6-0.2-1.7-1.5-2.3c0.3-0.1,0.5-0.3,0.8-0.5
		c-0.4-0.2-0.6-0.3-0.8-0.4c0.2-0.3,0.3-0.5,0.6-0.9c-1.1,0.1-2,0.2-2.9,0.3c0,0.1,0,0.2,0,0.2c0.2,0.1,0.5,0.2,0.7,0.3
		c-1.4,0.7-0.7,1,0.3,1.2c-0.4,0.2-0.6,0.3-1.2,0.6c1.2,0.8,2.1,1.5,3.2,2.3c0,0.9,1,2.5,1.9,2.8c-0.1,0.4-0.1,0.8-0.2,1.1
		C136.6,114.9,137.3,115,138.4,115.1z M176.7,112.8c0.1,0,0.3,0,0.4,0c1.2-5.1,1.3-10.1-0.4-15C176.7,102.7,176.7,107.7,176.7,112.8
		z M138.2,86.7c-0.6-0.3-1.3-0.3-1.5,0.7c-0.3,1.2-0.6,2.4-0.8,3.6c-0.1,0.3,0.1,0.7,0.2,1c0,0.1,0.5,0,0.5,0c0-0.3,0-0.7,0.1-1
		c0.1-0.3,0.3-0.6,0.5-0.9c0.3,0.3,0.7,0.5,0.8,0.8c0.1,0.3,0,0.7-0.1,1.2c1.1-1.5,1-1.9-0.7-2.7c0.4-0.6,0.9-1.1,1.5-1.9
		c0.4,1.6,0.7,3,1,4.6c0.1-0.7,0.1-1.2,0.2-1.7c0.1-0.4,0.4-0.9,0.6-1.3c0.2-0.3,1.3,0.2,0.9-0.8c0,0-0.8,0.2-1.3,0.3
		c0.1-0.3,0.2-0.6,0.2-0.9c-1.3-0.6,0.1-2.2-1.2-3C138.8,85.4,138.5,86,138.2,86.7z M133.7,74.5c-0.2,0-0.3,0-0.5,0
		c0,4-0.6,7.9-2.3,11.8c0.5-0.2,0.8-0.5,1-0.4c1.1,0.3,1.4-0.4,1.7-1.2c0.3-0.8,0.9-1.7,0.7-2.3c-0.9-2.2-0.7-4.4-0.6-6.7
		C133.8,75.3,133.7,74.9,133.7,74.5z M154.7,28.6c-0.3-0.3-0.4-0.5-0.7-0.9c0.1,0.7,0.2,1.1,0.3,1.7c-0.4-0.3-0.7-0.6-1-0.9
		c-0.1,0.1-0.2,0.1-0.3,0.2c0.3,0.5,0.5,1.1,0.8,1.6c0.4,0.6,0.9,1.3-0.2,1.9c0.9,0.4,1.3,0,1.7-0.6c0.2-0.4,0.5-0.9,0.8-1
		c1.4-0.6,1.6-1.8,1.6-3c0-0.6-0.8-1.2-1.3-1.7c-0.1-0.1-0.5,0-1.1,0c0.6,0.5,0.9,0.8,1.3,1.2c-0.5,0-0.8,0-1-0.1
		c0.1,1,0.1,1.9,0.2,2.9c-0.1,0-0.2,0-0.3,0c-0.2-0.9-0.3-1.7-0.5-2.6c-0.1,0-0.2,0-0.3,0C154.8,27.6,154.7,28,154.7,28.6z
		 M137.1,29c-0.1-0.4-0.1-0.6-0.2-0.8c-0.2-0.6-0.4-1.2-0.6-1.8c-0.4,0.4-0.9,0.8-1.4,1.3c-0.5-0.4-1.1-0.8-1.7-1.2
		c-0.1,0.4,0,0.6,0.1,0.8c0.9,1.4,2.4,2.4,2.6,4.3c0,0.2,0.6,0.5,0.8,0.4c0.3,0,0.5-0.4,0.7-0.7c0.4-0.4,0.7-0.9,1.1-1.3
		c0.3-0.4,0.7-0.9,1-1.4c-0.1-0.1-0.2-0.2-0.3-0.2c-0.3,0.2-0.5,0.4-0.8,0.6c-0.1-0.4-0.2-0.8-0.3-1.1c-0.2,0-0.2,0-0.2,0.1
		C137.6,28.2,137.4,28.5,137.1,29z M174.2,114c0.2,0,0.3,0,0.5,0c0.2-5.6,0.6-11.2-0.4-16.7c-0.2,0-0.4,0-0.6,0
		C173.8,102.8,174,108.4,174.2,114z M159.1,86.3c-0.2-2.4-0.4-4.7-0.7-7c0-0.4-0.4-0.7-0.7-1.1c-0.2,0.4-0.7,0.8-0.7,1.2
		c-0.1,1.8-0.1,3.6-0.1,5.4C157.1,86,157.4,86.3,159.1,86.3z M161,45.7c0.2,0.6,0.4,1.2,0.6,1.8c0.2,0.5,0.5,1,0.7,1.5
		c0.3-0.4,0.6-0.8,0.9-1.3c0,0,0.1-0.1,0.2-0.1c0.1,0,0.2,0.1,0.3,0.1c-0.4,0.9-1,1.8-1.3,2.7c-0.5,1.3-0.2,2.3,0.9,3
		c-0.6-1.2-0.1-1.9,0.8-2.6c0.8-0.7,0.9-1.6,0.5-2.6c-0.1-0.2-0.2-0.5-0.3-0.7c-0.1-0.3-0.3-0.6-0.4-1c-0.3,0.2-0.6,0.4-0.9,0.6
		c-0.1,0.1-0.2,0.2-0.3,0.4c0.1-0.5,0.3-0.9,0.6-1.3c0.1-0.2,0.2-0.5,0.1-0.6c-0.2-0.1-0.5-0.2-0.7-0.2
		C162.1,45.5,161.5,45.6,161,45.7z M135.2,21.5c-0.7,0.4-1.1,0.7-1.6,1c-0.4,0.2-1.1,0.4-1.1,0.6c0,0.6,0.3,1.2,0.5,1.8
		c0.2,0.3,0.6,0.6,0.9,0.8c0.4,0.3,0.9,0.8,1.2,0.7c0.5-0.1,0.9-0.7,1.1-1.1c0.3-0.7,0.4-1.5,0.4-2.3c0-0.3-0.2-0.5-0.3-0.8
		c-0.1,0-0.2,0.1-0.3,0.1c-0.1,0.5-0.2,1-0.3,1.8C135.6,23,135.4,22.3,135.2,21.5z M156.3,95.7c0.8,1.8,1.6,3.7,2.5,5.6
		c0.9-0.4,1.1-0.8,1-1.9c-0.1-1.2,0-2.4,0-3.7C158.5,95.7,157.3,95.7,156.3,95.7z M123.4,61.9c-0.2,0-0.4,0.1-0.6,0.1
		c-0.5,3.4,0,6.7,0.9,10c0.3-0.7,0.5-1.3,0.5-2c0.1-1.5,0.2-3.1,0-4.6C124.1,64.2,123.7,63,123.4,61.9z M146.5,25.4
		c0-0.1-0.1-0.3-0.1-0.4c1.6-0.6,1.6-0.6,1.8-1.6c-0.4-0.1-1-0.1-1.3-0.3c-0.9-0.7-1.7-0.2-2.5,0.1c-0.6,0.3-0.9,0.9-0.5,1.4
		c0.5,0.7,1.2,1.5,2,1.7c1.5,0.2,2.7-0.7,3.1-1.8c0-0.1,0-0.3,0-0.8c-0.6,0.5-0.9,0.9-1.3,1.2C147.4,25.1,146.9,25.2,146.5,25.4z
		 M115,98.4c-0.1,0-0.2,0-0.3,0c0.1,2.8,0.3,5.5,0.4,8.3c0,0.2,0.1,0.4,0.1,1c0.5-0.7,0.7-1.3,1.1-1.6c1.6-1.2,1.6-3.1-0.2-4.2
		c-0.1,0.3-0.1,0.6-0.2,1.1C115.5,101.3,115.3,99.9,115,98.4z M166.1,49.1c0-0.8-0.1-1.5,0-2.1c0.3-0.8,0.8-1.5,1.1-2.3
		c0.1-0.5-0.1-1.1-0.2-1.6c-0.2,0-0.3,0-0.5,0c-0.2,0.5-0.4,1-0.6,1.4c-0.2,0.5-0.3,1.3-1.1,0.9c-0.8-0.3-0.7-1-0.3-1.6
		c0.3-0.5,0.7-1,0.9-1.5c0.1-0.3-0.1-0.7-0.2-1c-0.3,0.1-0.6,0-0.8,0.2c-0.9,0.8-1.5,3.1,0,4.1c0.6,0.4,0.8,0.8,0.6,1.5
		C164.7,47.9,165.1,48.6,166.1,49.1z M142.3,42c-0.5-1.3,0.1-1.9,1.2-2.3c0.4-0.1,0.8-0.4,1.1-0.6c0.7-0.6,1-2,0.6-2.4
		c-0.4-0.5-1.8-0.3-2.5,0.5c-0.4,0.4-0.6,0.9-0.9,1.4c-0.2,0.4-0.4,0.8-0.6,1.2C140.6,40.9,140.8,41.5,142.3,42z M172.9,47
		c-0.1,0-0.3-0.1-0.4-0.1c0.1-0.4,0.1-0.8,0.3-1.1c0.2-0.4,0.6-0.8,0.9-1.2c0.5-0.7,0.6-1.5,0-2.5c-0.9,1.2-1.6,2.2-2.3,3.3
		c-0.1,0.2-0.2,0.6-0.1,0.7c0.7,1,1.4,1.9,2,2.6c0.5-0.6,0.9-1.1,1.3-1.7c0.2-0.3,0.5-0.5,0.6-0.8c0.1-0.3-0.1-0.7-0.1-1.1
		c-0.3,0.1-0.7,0.2-0.9,0.4C173.7,45.9,173.3,46.5,172.9,47z M172,27.4c-0.1,0-0.2,0-0.3,0.1c-0.7,0.5-1.3,0.9-1.6,1.9
		c-0.3,0.9-1.4,1.6-2.2,2.3c-0.7,0.7-0.3,1.3,0.1,1.9c0.2,0.3,0.7,0.3,1,0.5c-0.7-1.3-0.6-1.7,0.6-2.2c0.5-0.2,0.9-0.4,1.4-0.6
		C172.2,30.4,172.7,28.8,172,27.4z M167,24.9c-1.1-1.2-1.5-1.4-2.7-0.9c-0.9,0.4-1.6,1-2.4,1.6c-0.3,0.2-0.7,0.8-0.6,1
		c0.3,0.5,0.7,1,1.1,1.4c-0.1-1.2,0.2-1.7,1.4-1.7C165.1,26.3,166.2,26,167,24.9z M128.3,27.4c1.2-1,1.1-1.4-0.2-2.5
		c-1-0.8-2-1.6-2.9-2.5c-1.1,1.7-0.7,2.9,1,3.6C126.9,26.3,127.5,26.9,128.3,27.4z M175.4,113.7c1-2.5,0.8-14.7,0-15.9
		C175.4,103.1,175.4,108.4,175.4,113.7z M113.6,97.3c0.5,6,0.8,11.9,0,17.8C115.1,113.2,115.2,100,113.6,97.3z M146.9,36.5
		c0.5,1.3,0.8,2.5,2.1,3.1c1.6,0.7,1.6,0.8,1,2.6c0.5-0.2,0.9-0.2,1.2-0.5c0.6-0.6,0.4-1.7-0.3-2.5c-0.6-0.6-1.2-1.2-1.6-2
		C148.7,36.3,147.9,36.3,146.9,36.5z M141.4,31.3c-0.4,0.3-0.6,0.5-1,0.7c-0.1-0.4-0.2-0.8-0.3-1.2c-0.2,0.2-0.4,0.3-0.5,0.4
		c-0.3-0.3-0.6-0.6-0.9-0.7c-0.1,0-0.5,0.4-0.5,0.6c0,0.4,0.2,0.8,0.4,1.2c0.2,0.4,0.5,0.9,0.9,1.3c0.4,0.5,0.8,1,1.3,1.3
		c0.2,0.1,0.9-0.2,1-0.4c0.3-1,0.4-2,0.6-3.1c-0.2,0.3-0.5,0.5-0.7,0.9C141.5,31.9,141.5,31.7,141.4,31.3z M162.1,24.5
		c0-1.4,0.9-1.5,1.9-1.4c0.3,0,0.9-0.1,1-0.3c0.4-0.8,0.7-1.8,1-2.6c-1.3,0.4-2.4,0.7-3.5,1c-0.3,0.3-0.6,0.7-0.9,1
		C160.7,22.9,160.8,23.8,162.1,24.5z M116,30c-0.6-1.4-1.4-2.7-2.8-3.5c0.3,0.7,0.6,1.4,1.2,1.8c0.8,0.8,0.8,1.5-0.3,2.1
		c-0.5,0.3-1.1,0.5-1.7,0.8c-0.1-0.2-0.3-0.5-0.5-0.9c-0.1,0.4-0.1,0.6-0.1,0.9c-0.1-0.4-0.2-0.8-0.4-1.2c-0.2-0.3-0.6-0.4-0.9-0.6
		c0,0.3,0,0.7,0.1,1c0.1,0.3,0.3,0.5,0.4,0.8c-0.1,0.1-0.2,0.1-0.2,0.2c-0.3-0.3-0.6-0.5-0.9-0.8c-0.1,0-0.1,0.1-0.2,0.2
		c0.4,0.6,0.8,1.3,1.3,2.1C112.5,31.9,114.2,31,116,30z M146.1,53.5c-1,0.7-2.5,0.7-2.4,2.3c0,0.1-0.1,0.2-0.2,0.2
		c-1.1,1-1,1.7,0.6,2.2c-0.3-1.9,0.5-3.1,2.5-3.7c0.2,0.2,0.9,0.8,0.9,1.1c-0.3,1.2,0.6,1.3,1.4,1.7c0-0.6,0.3-1.3,0.1-1.5
		C148.1,55,147.1,54.3,146.1,53.5z M177.6,27.1c-0.1,0-0.2-0.1-0.2-0.1c-0.7,1.1-1.4,2.2-2.1,3.2c-0.5,0.7-0.4,1.2,0.2,1.3
		c1.6,0.2,2.5,1.2,3.4,2.3c0.1,0.1,0.2,0,0.1,0c0.7-0.7,1.3-1.3,1.9-1.9c-0.1-0.1-0.2-0.2-0.3-0.4c-0.6,0.4-1.2,0.7-1.7,1.1
		c-0.1-0.1-0.2-0.2-0.3-0.3c0.3-0.3,0.6-0.7,0.9-0.9c0.6-0.5,0.6-0.5-0.1-1c-0.3,0.4-0.6,0.7-0.9,1.1c-0.5-0.5-1-0.9-1.3-1.3
		c-0.4,0.2-0.8,0.5-1.2,0.8c-0.1-0.1-0.2-0.2-0.2-0.3C176.4,29.5,177,28.3,177.6,27.1z M120.3,55.6c0.7-0.5,1.5-0.8,1.6-1.2
		c0.1-0.5-0.2-1.2-0.5-1.7c-0.4-0.7-1.5-1-1.4-2.1c0-0.1-0.3-0.2-0.5-0.3c-0.1,0.2-0.4,0.5-0.3,0.6c0.3,0.7,0.8,1.4,1.1,2.1
		c0.2,0.4,0.4,0.8,0.6,1.3c-0.5,0.1-1.1,0.2-1.6,0.1c-0.5-0.1-0.8-0.6-1.2-0.9c-0.1,0.1-0.2,0.2-0.3,0.2c0.3,0.4,0.5,0.9,0.9,1.3
		c1.2,1,1.3,1.1,0.3,2.4C120.7,57.4,120.3,56.2,120.3,55.6z M163.6,31.3c0.3-0.4,0.4-1,0.8-1.2c1.7-0.8,1.8-1,1-2.9
		c-1.8,0.1-3.2,1.7-3,3.4C162.5,31.5,162.9,31.9,163.6,31.3z M123.1,53.3c0.6,0.8,1.3,1.4,1.6,2.1c0.2,0.4,0,1,0,1.5
		c-0.4-0.1-0.8-0.2-1.1-0.3c-0.2-0.1-0.5-0.3-0.7-0.5c-0.1,0.1-0.2,0.1-0.3,0.2c0.2,0.5,0.5,0.9,0.6,1.4c0.1,0.5,0.2,1.1,0.3,1.9
		c0.4-0.3,0.8-0.5,1-0.8c0.4-0.5,0.6-1.1,1-1.5c0.5-0.7,0.9-1.5,0.4-2.2C125.2,54.2,124.7,53.1,123.1,53.3z M153.9,44.6
		c1.4,0.1,2.1-0.4,2-1.4c-0.1-0.9-2.5-3-3.4-3.1c-0.4,1.2-0.3,2.2,1.1,2.7C154.3,43.2,154.4,43.9,153.9,44.6z M139.8,45.3
		c-0.5,0.4-0.9,0.7-1.2,1.2c-0.5,0.7-1,1.5-1.3,2.3c-0.2,0.7,0.6,1.5,1.1,1.6c0.4-0.7,0.5-1.5,1-1.9
		C140.7,47.4,140.8,46.9,139.8,45.3z M112,96.9c-0.1,0-0.1,0.1-0.2,0.1c0.4,1.7,0.9,3.4,1.1,5.1c0.2,1.7,0.2,3.5,0.2,5.3
		c0,1.7-0.2,3.5-0.3,5.2c0.1-0.1,0.2-0.3,0.2-0.5c1.3-4.7,0.8-9.4-0.2-14C112.6,97.6,112.2,97.2,112,96.9z M149.1,31.5
		c-0.2,0.5-0.3,0.8-0.3,0.9c-0.7-0.3-1.3-0.6-1.9-0.9c-0.1,0.1-0.3,0.2-0.4,0.3c1.6,1,1,1.9,0,2.7c1.1,0.7,2.6,0.6,3.2-0.1
		C150.2,33.9,149.9,32.5,149.1,31.5z M133.1,60.6c-1.8,1.6-1.2,6.2-0.1,8.5C132.6,66.2,134,63.4,133.1,60.6z M138,39.6
		c0.1,0.2,0.3,0.5,0.5,0.7c0.1,0.1,0.5,0,0.6-0.2c0.8-0.8,1.5-1.7,2.2-2.6c0.3-0.3,0.3-0.9,0.4-1.3c-0.5,0-1.1-0.3-1.5-0.1
		C139,36.8,138.4,38,138,39.6z M150.5,34.8c0.9,0.1,1.9-0.3,2.5-1.3c0.4-0.7,0.1-3-0.5-3.4c-0.1,0.6-0.1,1.2-0.2,1.9
		c-0.4-0.3-0.6-0.6-1-0.9c0,0.6,0,1,0,1.4c-0.4-0.3-0.7-0.6-1-0.8C150.3,32.7,150.4,33.6,150.5,34.8z M178.9,110.2
		c1-3.8,1-7.5,0.3-11.1c-0.1,0-0.2,0-0.3,0C178.9,102.7,178.9,106.3,178.9,110.2z M108.2,29.1c0.1,0,0.1,0,0.2,0.1
		c0.5-0.4,0.9-1,1.4-1.2c1.6-0.6,1.9-2.1,2.9-3.2c-0.3-0.1-0.4-0.1-0.5-0.1c-1.1,0.5-2.1,1-3.2,1.5c-0.8,0.4-1.4,1-1.4,2
		c0.5-0.4,0.9-0.7,1.6-1.2C108.8,27.9,108.5,28.5,108.2,29.1z M152.3,42.6c-0.1,0.1-0.2,0.1-0.3,0.2c0.2,1.3-0.6,3,1.4,3.6
		c0.2,0.1,0.3,0.5,0.4,0.8c0.1,0.3,0.1,0.6,0.2,1c0.1,0.1,0.3,0.1,0.4,0.2c0.3-0.5,0.7-0.9,0.9-1.5c0.1-0.3-0.2-0.8-0.4-1
		c-0.6-0.7-1.2-1.4-1.8-2.1C152.7,43.4,152.5,43,152.3,42.6z M143.1,31.7c-0.6,1-0.9,2,0,2.9c1,0.9,1.9,0.6,2.8-0.1
		c-0.3-0.4-0.8-0.8-0.8-1.2c-0.1-0.4,0.3-0.9,0.6-1.7c-0.6,0.5-0.9,0.8-1.2,1.1c-0.1-0.3-0.3-0.5-0.4-0.8c-0.2,0.2-0.4,0.4-0.6,0.6
		C143.3,32.2,143.2,32,143.1,31.7z M172.7,36.7c-0.7,0-1.5,0.1-1.6,0c-0.1-0.6-0.1-1.2-0.1-1.8c0-0.2,0.4-0.4,0.4-0.7
		c0.1-0.3,0-0.7-0.1-1c-0.3,0.1-0.7,0.1-0.9,0.3c-0.7,0.6-1,2-0.6,2.9c0.4,0.9,1.2,1.1,2.1,1c0.1,0,0.3,0,0.6,0.1
		c-0.4,0.4-0.6,0.7-0.9,1.1c0.6,0.5,1.2,1,1.7,1.5C173.1,38.8,172.9,37.7,172.7,36.7z M164.1,35.1c0.2-0.2,0.4-0.3,0.4-0.5
		c0-1.1,0.8-1.6,1.6-2.1c0.1-0.1,0.3-0.2,0.3-0.3c0.2-0.4,0.3-0.9,0.5-1.3c-0.5-0.1-1-0.3-1.5-0.2c-0.3,0.1-0.6,0.6-0.8,0.9
		c-0.2,0.3-0.4,0.7-0.6,0.9C163,33.4,162.9,34,164.1,35.1z M153.8,40.5c0.1,0.1,0.2,0.1,0.3,0.2c0.3-0.3,0.9-0.6,1-1
		c0.1-0.3-0.3-0.9-0.6-1.1c-0.8-0.7-1.7-1.4-2.6-2c-0.3-0.2-0.8-0.1-1.2-0.1c0,0.4-0.1,0.9,0.1,1.1c0.5,0.5,1,1,1.6,1.2
		C153.5,39.1,153.9,39.5,153.8,40.5z M154.8,20.9c-0.1,0-0.2,0-0.3,0c-0.1,0.2-0.2,0.4-0.3,0.5c-0.6,0.9-1.1,1.9-1.9,2.6
		c-0.7,0.7-0.9,1.2-0.3,1.8c0.9-0.5,1.7-1,2.6-1.5c0.2-0.2,0.5-0.5,0.5-0.7C155.1,22.7,154.9,21.8,154.8,20.9z M167.8,51.2
		c-0.3-1.2,0.2-2,1-2.8c0.5-0.5,0.5-1.6,0.7-2.4c0-0.2-0.3-0.5-0.6-0.6c-0.1,0-0.5,0.2-0.6,0.4c-0.5,0.9-1,1.9-1.4,2.9
		c-0.1,0.2-0.1,0.6,0,0.8C167.2,50.1,167.5,50.7,167.8,51.2z M135.4,51.7c0.1-0.1,0.3-0.4,0.5-0.7c0.2-0.4,0.4-0.8,0.4-1.2
		c0-0.2-0.2-0.5-0.4-0.8c-0.2,0.1-0.7,0.2-0.7,0.4c-0.3,1-0.5,1.9-0.7,2.9c0.6,0.2,1,0.3,1.4,0.5c-0.3,0.8-1.8,1.3-0.7,2.5
		c1.1-0.5,1.4-1.4,1.2-2.4C136.4,52.6,135.9,52.3,135.4,51.7z M171.3,87.4c0.6,1.2,0.9,2.3,1.6,3.2c0.6,0.8,1.3,1.4,0.8,2.5
		c0,0.1,0.1,0.4,0.2,0.5c0.1,0.1,0.4,0,0.4,0c0.1-0.1,0.1-0.3,0.1-0.5c-0.1-0.3-0.3-0.6-0.2-0.9c0-0.3,0.3-0.5,0.5-0.8
		c0.2,0.2,0.5,0.4,0.6,0.7c0.1,0.3,0,0.6,0,1.2c0.7-1.3,0.6-1.8-0.5-2.4c-1-0.5-2.1-0.9-1.9-2.5C173.1,87.3,172.2,87.2,171.3,87.4z
		 M168.2,60.3c-0.9,0.1-1.6,0.3-2.2,0.3c-0.5,0-1-0.1-1.5-0.2c0.2-0.5,0.3-0.9,0.5-1.4c0.1-0.1,0.3-0.2,0.3-0.3c0.1-0.2,0-0.4,0-0.6
		c-0.2,0-0.5-0.1-0.5,0c-0.3,0.7-0.8,1.4-0.9,2.1c-0.1,0.8,0.7,1.1,1.5,1.1c0.3,0,0.7,0,1,0c-0.6,1.6-0.2,2.3,1.1,2.1
		C167.2,62.2,167.2,62.2,168.2,60.3z M159.8,58.4c1-0.8,1.8-1.5,1.9-2.8c0-0.2,0.2-0.5,0.3-0.7c0.6-0.8,0.3-1.5-0.4-2.3
		c-0.3,0.7-0.9,1.3-0.8,1.8c0.3,1-0.2,1.6-0.8,2.2C159.5,57.1,159.2,57.6,159.8,58.4z M168.8,88.1c0.6,0.9,1.1,1.8,1.8,2.4
		c0.6,0.5,0.9,1,0.8,1.8c0,0.3,0,0.6,0,0.8c1.3-0.1-0.6-2.2,1.4-2c-0.4-0.1-0.8-0.3-1.2-0.4C171.5,88.2,171,87.6,168.8,88.1z
		 M134.3,43c0.9-0.7,1.6-1.4,2.4-1.9c0.6-0.4,0.7-0.8,0.3-1.4c-0.4-0.7-1-0.5-1.3-0.1c-0.6,0.7-1.2,1.4-1.6,2.2
		C133.9,42.1,134.2,42.7,134.3,43z M142.6,54.8c0.6-0.7,1.2-1.2,1.7-1.8c0.4-0.5,0.7-1,0.9-1.6c0.1-0.2-0.3-0.6-0.5-0.9
		c-0.3,0.2-0.6,0.4-0.9,0.6c-0.4,0.4-0.7,0.9-1.1,1.2C141.8,53,141.7,54.1,142.6,54.8z M151.5,53.7c0.1,0.8,0.2,1.5,0.3,2.2
		c0,1.2,0.7,2.3,2,2.8c-0.1-0.7-0.1-1.3-0.2-1.8c-0.2-0.8-0.5-1.5-0.8-2.2C152.5,54,152.1,53.6,151.5,53.7z M165.8,50.7
		c-1.8,1.3-2.3,2.5-1.6,4.1c0.2,0.4,0.6,0.6,0.9,0.9c0.1-0.1,0.2-0.1,0.3-0.2c-1-1-0.4-1.8,0.3-2.5
		C166.5,52.2,166.6,51.5,165.8,50.7z M138.9,45.1c-0.5-1.1,0-1.8,0.7-2.5c0.2-0.2,0.2-0.8,0.2-1.2c-0.4-0.1-1.1-0.3-1.2-0.2
		c-0.5,0.6-1,1.3-1.2,2.1C137.3,44.2,137.8,44.9,138.9,45.1z M140.9,56.3c-0.8,1.2-1.7,2.1-2.2,3.2c-0.4,0.8,0.4,1.6,1.4,1.5
		c-0.5-1-0.1-1.8,0.7-2.4C141.4,58,141.5,57.4,140.9,56.3z M127.4,51.6c0.4-0.2,1.1-0.4,1.1-0.6c0-0.5-0.3-0.9-0.5-1.4
		c-0.1-0.1-0.3-0.2-0.4-0.3c-0.1,2.5-2.1,0.7-2.8,1.5c0.7,0.9,1.3,1.6,2,2.5C126.9,52.8,127.2,52.1,127.4,51.6z M139.8,49.9
		c-0.4,1.5-2.3,2.1-1.8,4C140.8,52.7,141.2,51.8,139.8,49.9z M151.5,3.2c-1-0.2-1.7,0.3-1.9,1c-0.3,0.7-0.2,1.6-0.3,2.4
		c0.3,0,0.8,0.1,0.8,0C150.9,5.6,151.5,4.5,151.5,3.2z M145.9,57.5c-1,0.6-1.7,1.2-2.5,1.6c-0.8,0.5-1.3,1.5-0.8,2.3
		c0.1,0.2,0.4,0.4,0.6,0.4c0.1,0,0.4-0.2,0.4-0.3c-0.1-1.1,0.8-1.5,1.3-2.1C145.4,58.9,145.6,58.2,145.9,57.5z M173,50.1
		c-0.3,0.4-0.7,0.9-0.9,1.3c-0.4,0.7-0.8,1.4-0.9,2.2c-0.1,1,0.6,1.4,1.5,1c-1.1-0.8-1-1.4,0.1-2.1C173.9,51.8,173.8,50.8,173,50.1z
		 M134.8,48c0.5-0.6,0.9-1.3,1.3-1.8c0.5-0.7,1-1.3,0.1-2C133.7,46.3,133.3,47.4,134.8,48z M145.9,50.2c-0.1,0.1-0.2,0.2-0.3,0.3
		c0.6,0.9,1.2,1.9,1.9,2.7c0.2,0.3,0.9,0.2,1.4,0.3c-0.1-0.5-0.1-1.2-0.5-1.6C147.7,51.2,146.7,50.7,145.9,50.2z M167.1,58.2
		c-0.4-1.4-0.1-2.5,0.7-3.6c0.2-0.3,0.1-0.9,0.2-1.4c-0.1,0-0.2,0-0.3-0.1c-0.6,0.8-1.4,1.5-1.8,2.4
		C165.5,56.6,165.9,57.7,167.1,58.2z M121.3,87.8c0-0.2-0.1-0.3-0.1-0.5c-0.5,0-1.1-0.1-1.4,0.1c-1,0.6-1,1.7-0.2,3.2
		C121.6,90.5,120,88.4,121.3,87.8z M129.9,91.9c0.4-0.6-0.4-1.8,0.8-1.8c1.1,0,0.6,1,0.6,1.7c0.6-1.7,1.3-3.4,1.9-5
		c-0.2-0.1-0.3-0.2-0.5-0.2c-0.3,0.5-0.8,0.9-0.8,1.4c-0.1,0.9-0.4,1.4-1.4,1.6C129.4,89.8,129.2,90.7,129.9,91.9z M131,23.9
		c0.1-0.1,0.4-0.4,0.3-0.5c-0.4-1.4-0.1-2.8-0.2-4.2c0,0-0.1,0-0.3-0.1c0.2,1.4-0.9,1.7-1.9,1.8C129.7,22,130.3,22.9,131,23.9z
		 M137.4,34.9c-0.7,0.4-1.3,0.8-1.9,1.2c-0.7,0.4-1,1-0.7,1.8C137.6,37.1,138.2,36.4,137.4,34.9z M138.5,58c0.4-0.7,0.6-1.7,1.2-2.1
		c1-0.6,0.8-1.4,0.9-2.3c-0.8,0.1-1.3,0.2-1.3,1.1c0,0.3-0.3,0.7-0.6,0.9C137.6,56.6,137.6,57,138.5,58z M171.3,48.4
		c-0.1,0-0.3,0-0.4,0c-1.7,2.2-1.8,3.2-0.8,4.5c0.4-0.9,0.9-1.8,1.2-2.8C171.4,49.5,171.3,48.9,171.3,48.4z M141.6,7
		c0.7-0.8,0.9-1.7,0.4-2.5c-0.2-0.4-1-0.9-1.4-0.8c-0.7,0.3-0.6,1-0.2,1.6C140.8,5.8,141.2,6.3,141.6,7z M125.8,45.9
		c-0.9,0.8-0.3,1.2,0,1.8c0.2,0.3,0.2,0.9,0,1.3c-0.3,0.7-0.7,0.2-1.1-0.1c-0.2-0.1-0.4-0.2-0.6-0.3c-0.1,0.1-0.1,0.1-0.2,0.2
		c0.2,0.2,0.4,0.7,0.6,0.7c0.7,0,1.5,0,2.2-0.3c0.2-0.1,0.5-0.9,0.4-1.2C126.8,47.3,126.3,46.7,125.8,45.9z M146.5,57.9
		c0.2,2.3,0.7,3.3,1.6,3.3c0.2,0,0.4-0.2,0.7-0.4c-0.3-0.3-0.6-0.5-0.8-0.7C148.7,59.2,148.3,58.6,146.5,57.9z M114.9,115.1
		c0.2-0.7,0.5-1.2,0.5-1.8c0.1-1.5-0.2-3.1,1.6-4c0,0,0-0.1,0-0.3c-0.6,0-1.2-0.1-2.1-0.2C114.9,111,114.9,112.9,114.9,115.1z
		 M111.6,109.9c0.6-3.4,0.7-6.8,0-10.2C111.6,103.2,111.6,106.5,111.6,109.9z M115.7,48.2c-0.7,1.7,2.2,2.5,0.8,4.2
		c1.3,0,1.9-0.6,1.4-1.5C117.2,49.9,116.4,49.1,115.7,48.2z M118.4,86.7c-0.1,0-0.3-0.1-0.4-0.1c-0.2,0.8-0.4,1.6-0.7,2.3
		c-0.2,0.4-0.6,0.7-1,1c-0.2,0.2-0.6,0.2-0.8,0.4c0.2,0.2,0.3,0.6,0.5,0.7c0.3,0.1,0.9,0.1,1-0.1C117.9,89.7,118.6,88.4,118.4,86.7z
		 M128.6,90.5c2.7-2.8,2.7-2.8,2.3-3.8c-0.7,0.5-0.6,2.4-2.3,1.1C128.6,88.7,128.6,89.5,128.6,90.5z M157.8,36.1
		c-0.4,0.2-0.6,0.3-0.7,0.4c0,0.3-0.1,0.6,0.1,0.9c0.2,0.4,0.5,0.8,0.9,1.2c0.3,0.2,0.7,0.4,1,0.3c0.2-0.1,0.5-0.8,0.4-0.9
		C159,37.3,158.4,36.7,157.8,36.1z M158,47.4c0.8-0.7,0.8-1.5-0.1-2.3c-0.5-0.4-1.1-0.7-1.6-0.1c-0.5,0.7,0.2,1,0.6,1.3
		C157.3,46.7,157.7,47.1,158,47.4z M126.6,58.7c1-0.2,2-1.1,1.9-2c-0.1-0.4-0.6-0.8-1-1.1c0,0-0.5,0.3-0.6,0.5
		C126.8,56.9,126.7,57.8,126.6,58.7z M155.8,40.3c1.1,0,1.9-0.4,1.8-1.3c-0.1-0.6-1-1.2-1.5-1.7c-0.1-0.1-0.5,0.1-0.7,0.3
		c-0.1,0.1,0,0.5,0.2,0.6C156.6,38.7,156.4,39.4,155.8,40.3z M172.3,111.3c-0.1,1.3-0.3,2.5-0.5,3.9c0.3-0.1,0.8-0.2,0.9-0.5
		C173.8,112.8,173.8,112.5,172.3,111.3z M161.1,90.1c-1.3-0.3-1.4-1.2-1.6-2c-0.1-0.3-0.3-0.6-0.4-0.8c0,0-0.4,0.1-0.5,0.2
		c-0.1,0.3-0.1,0.7,0,1c0.3,1.1,0.7,2.1,1.1,3.1c0.1,0.2,0.4,0.4,0.6,0.6c0.1-0.1,0.2-0.1,0.3-0.2C160.1,91.3,159.8,90.5,161.1,90.1
		z M157.7,44c0.1-0.8,0.4-1.5,0.3-2.2c0-0.3-0.7-0.7-1.1-0.9c-0.2-0.1-0.6,0.3-0.9,0.4c0.2,0.4,0.4,0.8,0.7,1.2
		C156.9,43,157.2,43.4,157.7,44z M170.5,55.3c-0.6,0.4-1.2,0.8-1.8,1.3c-0.7,0.6-0.9,1.5-0.5,2.3c0.1,0.3,0.6,0.5,0.9,0.7
		c0.1-0.1,0.2-0.2,0.3-0.2c-1.1-0.9-0.6-1.5,0.1-2.2C170,56.6,170.2,55.9,170.5,55.3z M159.3,46.4c0.6,1.6,1.1,2.9,1.5,4.1
		c0.6-0.8,0.6-2.8-0.3-3.7C160.3,46.6,159.8,46.6,159.3,46.4z M159.2,42.3c0.3-0.2,0.9-0.5,1-0.8c0.1-0.4,0-1.1-0.3-1.4
		c-0.3-0.3-0.9-0.3-1.4-0.4c0,0.4,0,0.9,0.1,1.3C158.8,41.3,159,41.7,159.2,42.3z M157.8,51.4c0.6-0.6,0.5-1.2-0.1-1.9
		c-0.2-0.2-0.4-0.4-0.5-0.7c-0.2-0.3-0.3-0.6-0.4-0.9c-0.3,0.2-0.6,0.5-0.7,0.8c-0.1,0.2,0.1,0.7,0.2,0.9
		C156.6,50.2,157.2,50.7,157.8,51.4z M131.1,115.3c1.4,0.5,1.5-0.6,1.6-1.3c0.2-1-1.5-2.5-3-2.7C132,112.7,132.3,113.7,131.1,115.3z
		 M133.7,35.7c1.8-1.7,1.9-2,0.9-3C133,33.9,132.7,34.8,133.7,35.7z M142.3,88.3c-0.2-2.5-0.4-5.1-0.6-7.6
		C141,83.2,141.4,85.8,142.3,88.3z M131.8,92.9c-1.8-0.6-2.7,0.1-2.7,1.8C131,95.5,130.6,93.3,131.8,92.9z M134,92.5
		c-1.2-0.2-2,0.3-2.3,1.5c-0.1,0.2,0.2,0.8,0.3,0.8c0.4,0,1,0,1.2-0.3C133.6,93.9,133.8,93.1,134,92.5z M131.2,27.6
		c0.1-0.1,0.3-0.1,0.4-0.2c-0.3-1.1-0.7-2.2-1-3.3c-0.2,0-0.4,0-0.6,0c-0.1,0.5-0.5,1.2-0.3,1.6C130,26.5,130.7,27,131.2,27.6z
		 M149.2,60.2c0.9-0.4,1.7-0.6,1.5-1.6c-0.1-0.8-0.6-1.3-1.5-1.2C149.2,58.3,149.2,59.2,149.2,60.2z M135.4,117.8
		c-0.6-1.4,1.1-1.3,1.7-2.4c-1,0.3-1.7,0.4-2.3,0.7c-0.3,0.2-0.8,0.6-0.8,0.9C134.1,117.6,134.5,118.1,135.4,117.8z M143,19.1
		c-0.6-0.6-1.1-1.2-1.7-1.7c-0.3-0.2-0.6-0.4-0.9-0.6c-0.1,0.4-0.3,0.9-0.1,1.1C140.9,19,141.9,19.3,143,19.1z M163.4,59
		c-1.5-1.4,0.9-2.6,0.1-4.1C161.8,57,161.7,58.1,163.4,59z M131.5,48.8c1.9-2.2,1.9-2.2,1.2-3.1C131.4,46.5,131,47.5,131.5,48.8z
		 M162.9,41.6c1.6-1.3,1.8-1.9,1.1-2.9C162.7,39.5,162.3,40.6,162.9,41.6z M148.3,17.5c0.9,0.7,1.6,0.5,2-0.1
		c0.3-0.6,0.2-1.4,0.3-2.1c0-0.1-0.3-0.3-0.5-0.2c-0.2,0.1-0.4,0.3-0.4,0.4C149.9,16.6,149.4,17.2,148.3,17.5z M161.3,44.2
		c-0.7-0.4-1.1-0.8-1.5-0.9c-0.2,0-0.6,0.4-0.9,0.7c0.4,0.5,0.8,1,1.2,1.4C160.4,45.1,160.7,44.8,161.3,44.2z M131.9,52.3
		c0.7-1,1.3-1.8,1.9-2.6c-0.1-0.1-0.2-0.3-0.2-0.4c-0.4,0.1-0.9,0.2-1.2,0.4C131.7,50.3,131.4,51.1,131.9,52.3z M178.6,23.1
		c1,0.5,2.5-0.2,2.5-1.3c0-0.2-0.2-0.6-0.3-0.6c-0.2-0.1-0.5,0.1-0.7,0.2C179.6,21.9,179.1,22.5,178.6,23.1z M133.5,52.4
		c-0.4,0.6-0.8,1.1-1.1,1.7c-0.1,0.2,0.1,0.7,0.3,0.8c0.2,0.1,0.7,0,0.9-0.2C134,54.1,134.4,53.4,133.5,52.4z M141.3,92.3
		c-0.3-0.4-0.5-0.7-0.6-1c0-0.3,0-0.7,0.2-1.1c0-0.1,0.6-0.2,0.6-0.1c0.2,0.3,0.3,0.6,0.3,1c0,0.3,0,0.5,0,0.8
		c0.7-1.2,0.4-2.3-0.3-2.4c-0.4-0.1-1,0.2-1.1,0.6C139.9,90.9,140.4,92,141.3,92.3z M118.2,91.3c1.2,0.6-0.2,1.3,0.1,2
		c0.8-0.2,1.4-0.7,1.2-1.4c-0.1-0.5-0.9-0.8-1.3-1.2c-0.2,0.3-0.4,0.6-0.6,0.9c0,0,0.1,0.2,0.1,0.3C117.9,91.6,118,91.5,118.2,91.3z
		 M128.2,13.8c-1.1-0.4-2-0.7-3-1.1C125.2,14.3,126.2,14.7,128.2,13.8z M131.9,40.3c0.5-0.3,1-0.7,1.5-1c0.1,0,0.2-0.1,0.2-0.1
		c0.1-0.3,0.2-0.6,0.1-0.8c-0.1-0.2-0.4-0.3-0.7-0.3C132.1,38.1,131.5,39.4,131.9,40.3z M136.9,120.3c0.3,0.8-0.1,1.9,1.3,1.8
		c0.2,0,0.5-0.6,0.5-0.9C138.6,120.1,137.8,120.1,136.9,120.3z M162.4,93.2c1,0.4,0.8,2.1,2.3,2C164.6,93.6,163.9,92.9,162.4,93.2z
		 M156.1,58.1c0.7-0.7,1-1.9,0.4-2.6c-0.2-0.2-0.5-0.3-0.7-0.4c-0.1,0.3-0.3,0.5-0.3,0.8C155.7,56.7,155.9,57.4,156.1,58.1z M133,42
		c-0.1-0.1-0.3-0.1-0.4-0.2c-1.1,0.5-1.4,1.5-0.7,3.2C132.3,43.8,132.7,42.9,133,42z M151.5,122c0-1.6-0.2-1.8-1.7-1.4
		C149.9,122.2,150.1,122.3,151.5,122z M147.6,120.4c-0.1,1,0.1,1.7,1.1,1.6c0.3,0,0.7-0.6,0.7-0.9
		C149.3,119.9,148.3,120.6,147.6,120.4z M134,116.1c-0.1-0.1-0.1-0.3-0.2-0.4c-0.6,0.3-1.3,0.5-1.9,0.9c-0.1,0.1,0,0.8,0.2,1
		c0.2,0.2,0.7,0.3,1.4,0.5c-0.3-0.7-0.4-0.9-0.5-1.2C133.4,116.5,133.7,116.3,134,116.1z M122.2,60.5c0-0.5,0-0.9-0.1-1.1
		c-0.2-0.3-0.5-0.5-0.8-0.8c0,0.3-0.1,0.6-0.1,1c-0.1,0.4-0.1,0.7-0.2,1.1c-0.1,0.3-0.1,0.5-0.2,0.8c0.3,0,0.8,0.1,0.9-0.1
		C122.1,61.1,122.2,60.7,122.2,60.5z M157.5,54.4c0.1-0.4,0.4-1.1,0.2-1.2c-0.5-0.4-1.1-0.6-1.6-0.8c-0.1,0-0.4,0.3-0.4,0.5
		c0,0.2,0.2,0.5,0.4,0.6C156.4,53.8,156.8,54,157.5,54.4z M145.5,63.7c0.4-0.9,0.7-1.6,0.9-2.3c0-0.1-0.2-0.4-0.4-0.5
		c-0.1-0.1-0.5,0-0.5,0.1C145.4,61.8,144.5,62.5,145.5,63.7z M154.1,121.1c-0.7-0.4-1-0.8-1.4-0.8c-0.2,0-0.7,0.6-0.7,0.7
		c0.2,0.4,0.6,0.8,0.9,1.2C153.2,121.9,153.5,121.7,154.1,121.1z M133.9,94.7c0.6-0.2,1.1-0.3,1.3-0.5c0.4-0.5,0.6-1.1,0.9-1.6
		C134.8,92.3,134.5,92.6,133.9,94.7z M115.5,31.3c-1.1-0.5-2.9,0.5-3.5,2.2C113.1,32.8,114.3,32,115.5,31.3z M136.4,121.8
		c-0.2-0.8-0.1-1.7-1.2-1.7c-0.2,0-0.4,0.6-0.4,0.9C134.8,122.1,135.5,122,136.4,121.8z M153.8,120.2c0.2,0.8,0.4,1.4,0.6,1.9
		c0.1,0.1,0.8,0,0.8,0c0-0.6,0-1.2,0-1.9C154.8,120.3,154.5,120.2,153.8,120.2z M135.8,59c0.3-1,0.6-2,0.9-3.1
		C134.8,57.8,134.7,58.4,135.8,59z M141.3,120.6c-1.5-0.3-1.7-0.1-1.6,1.4C141.1,122.4,141.3,122.1,141.3,120.6z M155.8,120.2
		c-0.1,0.1-0.1,0.2-0.2,0.3c0.4,0.5,0,1.7,1.2,1.5c0.3-0.1,0.4-0.8,0.6-1.2C157,120.7,156.4,120.4,155.8,120.2z M153.8,36.8
		c1.2,0,1.7-0.3,1.6-1.2c0-0.3-0.6-0.9-0.8-0.8C153.3,35.1,154.5,36.2,153.8,36.8z M126.7,94.5c1.7,0.7,1.5-1.1,2.4-1.7
		C127.6,92.6,127,93.3,126.7,94.5z M126.4,92.9c-1.3-0.1-1.8,0.4-2.1,1.9C126,95.2,125.4,93.2,126.4,92.9z M124.2,92.9
		c-0.7-0.1-1.4,0.1-1.9,0.8c-0.1,0.3-0.2,0.8-0.1,0.9c0.2,0.2,0.6,0.2,0.7,0.2C123.5,94.1,123.8,93.6,124.2,92.9z M155.4,92.9
		c0.4,0.7,0.7,1.3,1.1,2.1c0.3,0,0.6-0.1,1.1-0.1C157.3,93.7,156.8,92.8,155.4,92.9z M164.7,93.3c0.9,2,0.9,2,1.8,1.8
		C166.4,93.5,166,93,164.7,93.3z M158.1,120.3c0.1,0.7,0.3,1.2,0.4,1.7c1.3,0,1.4-0.3,1.2-1.6C159.2,120.4,158.8,120.4,158.1,120.3z
		 M142.6,120c-0.4,0.6-0.8,0.9-0.8,1.1c0.1,0.3,0.4,0.6,0.6,0.9c0.3-0.3,0.8-0.5,0.9-0.8C143.4,121,143,120.6,142.6,120z
		 M168.7,93.6c0.6,0.7,1.1,1.3,1.8,2.2c0.1-0.6,0.3-1,0.2-1.4C170.4,93.6,169.7,93.4,168.7,93.6z M162.5,94.7
		c-0.8-0.8-1-1.9-2.4-1.6C160.8,93.6,160.6,95.3,162.5,94.7z M129.8,115.4c-0.4,0.3-0.9,0.5-1.2,0.9c-0.1,0.2-0.1,0.8,0,0.9
		c0.3,0.3,0.8,0.3,1.1,0.4C129.8,116.8,129.8,116.2,129.8,115.4z M155.6,118.3c0.4-0.2,0.8-0.3,1.1-0.5c0.1-0.1,0.1-0.7,0-0.8
		c-0.4-0.3-1-0.5-1.7-0.9C155.2,117,155.4,117.5,155.6,118.3z M161.8,122c0.1-1.7,0-1.9-1.3-1.6c0,0.5,0.1,1,0.1,1.6
		C161.1,122,161.4,122,161.8,122z M155.5,94.9c-0.4-1.6-1-2.1-2.1-2c0.3,0.4,0.7,0.8,0.8,1.2C154.3,95,154.8,95,155.5,94.9z
		 M160.8,85.2c0.1,0,0.2-0.1,0.3-0.1c-0.4-1.3-0.7-2.6-1.1-3.9c-0.1,0-0.3,0.1-0.4,0.1C160.6,82.5,159.4,84.2,160.8,85.2z
		 M116.6,108.4c0.3-0.6,0.6-1.2,0.8-1.7c-1.2-0.2-1.6,0.1-1.9,1.7C115.9,108.4,116.3,108.4,116.6,108.4z M168.9,95.5
		c-0.7-1.7-1.1-2-2.4-2C167.4,94.2,167.2,95.7,168.9,95.5z M152,118c0,0.1,0.1,0.2,0.1,0.4c0.4-0.2,0.7-0.4,1.1-0.6
		c-0.3-0.4-0.6-0.9-0.9-1.2c-0.2-0.2-0.6-0.2-1-0.3C151.5,116.9,151.7,117.4,152,118z M162.5,44.9c0.1-1.1,0.2-2,0.3-3.2
		C161.5,42.8,161.5,44,162.5,44.9z M161.5,118.4c0.3-0.4,1-0.9,0.9-1.1c-0.3-0.8-1-1.2-1.9-0.9C160.8,117,161.1,117.5,161.5,118.4z
		 M143.6,118.6c-0.1-0.8-0.2-1.3-0.2-1.9c-0.5,0.1-0.9,0.1-1.2,0.3c-0.1,0.1-0.1,0.7,0.1,0.9C142.5,118.2,142.9,118.3,143.6,118.6z
		 M143.9,116.8c0,1.3,0.6,1.7,1.4,1.6c0.2,0,0.4-0.4,0.5-0.7C145.3,117.4,144.7,117.1,143.9,116.8z M133.5,55.9
		c-0.9,1.8-0.9,1.9,0,2.6C134.2,56.5,134.2,56.5,133.5,55.9z M134.2,121.8c-0.2-0.4-0.3-0.9-0.5-1.3c-0.1-0.2-0.5-0.3-0.7-0.4
		c-0.1,0.2-0.4,0.5-0.4,0.7C132.6,122,133.2,122,134.2,121.8z M136.3,94.1c1.8,0.6,1.1-1.5,2.1-1.6
		C137.1,92.3,136.7,93.1,136.3,94.1z M129.3,13.2c-0.1,0.1-0.2,0.2-0.3,0.3c0,1.4,1.2,1.5,2,2c0.1-0.1,0.2-0.2,0.3-0.3
		C130.6,14.5,129.9,13.8,129.3,13.2z M131.8,121.9c-0.3-0.7-0.6-1.3-0.8-1.8c-0.2,0.2-0.7,0.3-0.7,0.5
		C130.3,121.3,130.4,122,131.8,121.9z M127.6,52.3c0.1,0.8,0.2,1.5,0.4,2.1c0,0.2,0.2,0.4,0.3,0.6c0.2-0.2,0.5-0.4,0.5-0.6
		C128.8,53.6,128.7,52.8,127.6,52.3z M124.8,115.7c-0.1-0.1-0.1-0.2-0.2-0.3c-0.6,0.3-1.3,0.5-1.9,0.8c0,0.1,0,0.3,0,0.4
		c0.5,0.2,1,0.5,1.5,0.7c0.1-0.1,0.1-0.2,0.2-0.3c-0.1-0.2-0.2-0.4-0.4-0.7C124.3,116.1,124.6,115.9,124.8,115.7z M147,122
		c0.3-1.6,0.2-1.7-1.2-1.4C145.7,121.5,145.8,122.1,147,122z M159.9,94.7c-0.5-0.9-0.8-1.8-2.4-1.7
		C158.6,93.4,158.1,95.4,159.9,94.7z M144.1,122c1.2,0.1,1.4-0.5,1.3-1.5c-0.4,0-0.8,0-1.3,0C144.1,121.1,144.1,121.5,144.1,122z
		 M157,116.3c0.3,0.7,0.5,1.3,0.7,2c0.3-0.2,0.9-0.4,0.9-0.6C158.6,116.7,157.8,116.5,157,116.3z M116.7,91.6
		c-0.4,0.7-0.7,1.2-1.2,2.1c0.5-0.1,1.3-0.1,1.3-0.2C117,92.9,117.7,92.1,116.7,91.6z M141.7,118.4c0-0.9,0-1.4,0-2
		c-0.1-0.1-0.2-0.1-0.3-0.2c-0.3,0.5-0.6,0.9-0.9,1.4C140.8,117.8,141.2,118,141.7,118.4z M146.6,116.7c-0.3,1.2-0.2,1.6,0.6,1.6
		c0.3,0,0.5-0.4,0.7-0.6C147.6,117.4,147.2,117.1,146.6,116.7z M158.1,58.4c0.3-0.7,1.2-1.2,0.4-2C157.4,57,157.3,57.5,158.1,58.4z
		 M120.5,94.9c1.6,0.1,1.1-1.3,1.7-1.9C120.7,92.9,120.7,93.9,120.5,94.9z M126.1,117.4c0.2-0.8,0.3-1.3,0.5-2.1
		c-0.6,0.4-1.1,0.7-1.9,1.2C125.4,116.9,125.7,117.1,126.1,117.4z M154,118.5c0.3-0.4,0.7-0.7,0.6-0.9c-0.1-0.8-0.6-1.3-1.5-1.3
		C153.4,117,153.6,117.6,154,118.5z M130.9,53.6c-0.1,0-0.2,0-0.4,0c-0.1,0.2-0.4,0.6-0.3,0.7c0.2,0.4,0.6,0.8,0.9,1.2
		c0.1-0.2,0.4-0.4,0.4-0.5C131.4,54.5,131.1,54.1,130.9,53.6z M140.1,92.7c0-0.1-0.1-0.3-0.1-0.4c-0.4,0.2-0.9,0.3-1.2,0.6
		c-0.3,0.3-0.3,0.8-0.5,1.2c0.1,0,0.2,0.1,0.3,0.1C139.1,93.7,139.6,93.2,140.1,92.7z M157.4,33.5c-0.2,0-0.4,0.1-0.6,0.1
		c0.1,0.6,0.2,1.2,0.4,1.8c0,0.1,0.4,0.3,0.5,0.2c0.1-0.1,0.3-0.4,0.3-0.5C157.9,34.6,157.7,34.1,157.4,33.5z M127.7,120.1
		c0.4,0.8,0.6,1.3,0.9,1.9c0.2-0.1,0.5-0.3,0.5-0.4C129.1,120.8,129,120.2,127.7,120.1z M118.6,93.6c0-0.1-0.1-0.2-0.1-0.3
		c-0.4,0.2-0.8,0.2-1.2,0.5c-0.2,0.2-0.4,0.6-0.3,0.9c0,0.2,0.5,0.3,0.7,0.4C118,94.5,118.3,94.1,118.6,93.6z M130.2,40.4
		c0.1,0,0.2,0.1,0.4,0.1c0.2-0.4,0.5-0.8,0.5-1.2c0-0.2-0.2-0.5-0.4-0.8c-0.2,0.2-0.6,0.4-0.6,0.6C130,39.5,130.2,40,130.2,40.4z
		 M158.9,49.7c0.2,0.8,0.3,1.5,0.5,2.3C160.4,51.1,160.1,50.1,158.9,49.7z M159.2,55.1c0.1,0,0.2,0.1,0.3,0.1c0.1-0.4,0.4-1,0.2-1.3
		c-0.1-0.4-0.6-0.6-1-1c-0.1,0.1-0.1,0.2-0.2,0.2C158.8,53.8,159,54.4,159.2,55.1z M131.5,115.5c-0.5,0.4-1.1,0.7-1.2,1.1
		c-0.1,0.3,0.5,0.7,0.9,1.2C131.3,116.9,131.4,116.4,131.5,115.5z M118.7,94.6c1.4,0.3,1.5,0.1,1.3-1.6
		C119.6,93.5,119.2,94,118.7,94.6z M162.2,89.6c-0.1,0-0.1,0.1-0.2,0.1c0.1,0.6,0.2,1.2,0.3,1.8c0,0.2,0.2,0.4,0.3,0.7
		c0.2-0.2,0.5-0.5,0.4-0.7C162.9,90.8,162.5,90.2,162.2,89.6z M171.4,93.6c-0.1,0.1-0.2,0.2-0.3,0.3c0.3,0.6,0.7,1.2,1.2,2
		c0.1-0.5,0.4-0.8,0.3-1C172.3,94.4,171.8,94,171.4,93.6z M125.6,58.9c-0.1,0-0.2,0-0.4,0c-0.3,0.5-0.6,1-0.8,1.5
		c0.5,0.1,1.1,0,1.3-0.3C125.9,59.8,125.7,59.3,125.6,58.9z M163.7,121.9c0.8,0.1,1.4-0.1,1.4-0.9c0-0.2-0.6-0.4-1-0.7
		C163.9,120.9,163.8,121.3,163.7,121.9z M127.9,117.6c0.1-0.9,0.1-1.5,0.2-2c-0.5,0.3-0.9,0.6-1.1,1.1
		C126.9,116.9,127.5,117.2,127.9,117.6z M164.5,116.5c0.4,0.7,0.6,1.2,0.9,1.8C166.1,117.1,165.9,116.7,164.5,116.5z M159.3,116.3
		c-0.1,0.1-0.2,0.2-0.3,0.3c0.2,0.6,0.3,1.1,0.6,1.8c0.3-0.2,0.7-0.5,0.7-0.5C160,117.4,159.6,116.8,159.3,116.3z M166.6,116.3
		c-0.2,0.1-0.3,0.2-0.5,0.4c0.3,0.4,0.6,0.8,0.9,1.3c0.1-0.2,0.4-0.5,0.4-0.7C167.2,116.9,166.9,116.6,166.6,116.3z M129.9,45.8
		c0.1,0,0.3,0,0.4-0.1c0.1-0.7,0.7-1.4-0.5-1.9C129.9,44.5,129.9,45.1,129.9,45.8z M129.4,51.8c0.2,0,0.5,0,0.7,0c0-0.6,0-1.2,0-1.8
		c-0.2,0-0.6,0-0.6,0C129.5,50.7,129.5,51.2,129.4,51.8z M131.4,37.1c0.1,0,0.3,0,0.4,0c0.5-0.5,0.8-1.1,0.2-1.7c-0.2,0-0.3,0-0.5,0
		C131.5,36,131.4,36.5,131.4,37.1z M180.2,105.8c0.9-1.3,0.8-1.6,0-2.2C180.2,104.3,180.2,104.9,180.2,105.8z M126.2,121.9
		c0.2,0,0.3-0.1,0.5-0.1c-0.1-0.5-0.2-1.1-0.3-1.6c-0.2,0.1-0.5,0.2-0.5,0.2C126,120.9,126.1,121.4,126.2,121.9z M163.7,118.3
		c0.1-0.4,0.3-0.6,0.3-0.9c-0.1-0.7-0.5-1.2-1.3-1.1C163,117,163.3,117.5,163.7,118.3z"/>
	<path class="st6" d="M163.1,98.3c0.2,0.7,0.3,1,0.3,1.4c0,0.3-0.1,0.6-0.2,0.7c-0.2,0.1-0.6,0.2-0.8,0.1c-0.4-0.2-0.7-0.5-1.3-1
		C161.8,99.1,162.5,98.7,163.1,98.3z"/>
	<path class="st6" d="M160.3,114.2c0-0.4-0.5-0.8,0.2-1.1c0.1-0.1,0-0.6,0.1-1c0.2-0.1,0.5-0.3,0.8-0.5c0.1,0,0.2,0.1,0.2,0.1
		C161.2,112.5,160.7,113.4,160.3,114.2L160.3,114.2z"/>
	<path class="st6" d="M142.9,12.9c-0.2-0.2-0.5-0.3-0.7-0.5c-1.1-1.1-1.5-1.1-2.7-0.1c-0.4,0.3-0.9,0.4-1.4,0.5c0.9-1,1.7-2.2,3.2-2
		c0.7,0.1,1.3,1.1,2,1.6C143.2,12.6,143,12.8,142.9,12.9z"/>
	<path class="st6" d="M153.9,12.8c-1-0.4-1.8-0.9-2.5-0.8c-0.6,0.1-1.2,0.8-1.9,1.1c0.3-1,0.7-1.8,1.8-2
		C152.5,10.9,153,11.9,153.9,12.8z"/>
	<path class="st6" d="M156.8,104.7c0,5.9-4.7,10.5-10.6,10.5c-5.9,0-10.6-4.7-10.6-10.6c0-5.9,4.8-10.6,10.7-10.6
		C152.2,94.1,156.9,98.8,156.8,104.7z M148.1,102.2c0,0.3,0,0.6,0,0.9c0.2,0.2,0.3,0.3,0.5,0.5c0.1,0.2,0.3,0.5,0.4,0.5
		c2.3-0.3,4.6-0.7,6.7-1c0-0.7-0.1-1.3-0.2-1.9c0-0.1-0.3-0.2-0.4-0.3c0-0.2,0.2-0.4,0.1-0.4c-0.4-0.5-0.8-1-1.2-1.6
		c0,0-0.3,0.1-0.5,0.2c0.1-0.2,0.3-0.4,0.3-0.3c-0.4-0.6-0.8-1.1-1.2-1.6c-0.1-0.1-0.3-0.1-0.5-0.1c-0.7-0.5-1.4-0.9-2.1-1.4
		c-0.8-0.1-1.5-0.2-2.3-0.3c-0.3,2.1-0.6,4.5-0.9,6.8c0,0.1,0.3,0.3,0.4,0.4C147.4,102.4,147.8,102.3,148.1,102.2z M145.2,107.1
		c-0.1-0.2-0.3-0.3-0.4-0.5c-0.2-0.2-0.3-0.3-0.5-0.5c0.1-0.8-0.3-0.5-0.6-0.3c-2,0.9-4,1.8-6.1,2.7c0-0.1-0.1-0.2-0.1-0.3
		c2.2-1,4.4-1.9,6.6-2.9c0-0.1,0-0.2-0.1-0.2c-0.2,0-0.4,0-0.6,0c0.2-0.1,0.4-0.3,0.7-0.5c-2.7-0.3-5.2-0.6-7.5-0.9
		c0,0.8,0,1.5,0,2.2c0,0,0.2,0,0.3,0c2.2-0.3,4.3-0.5,6.5-0.8c-2.3,0.4-4.6,0.8-6.6,1.1c0.1,0.6,0.1,1.2,0.2,1.8
		c0.1,0.3,0.1,0.7,0.3,0.8c0.7,0.3,1,0.8,0.9,1.5c0,0,0.3,0.1,0.4,0.2c0,0.1-0.1,0.2-0.1,0.3c1,0,1.2,0.9,1.7,1.5
		c0.7,0.4,1.4,0.8,2.1,1.2c0,0,0.1,0,0.2,0c0,0.1,0.1,0.3,0.1,0.3c0.7,0.1,1.4,0.1,2.2,0.2c0,0,0-0.3,0-0.5c0.3-2.1,0.6-4.1,0.9-6.2
		c-0.2,2.4-0.4,4.8-0.6,6.9c0.7,0,1.4,0,2.2,0c0,0,0-0.2-0.1-0.3c-0.2-2.1-0.5-4.3-0.7-6.4c0.4,2.3,0.8,4.5,1.1,6.5
		c0.8-0.1,1.6-0.3,2.3-0.4c0.6-0.6,1.1-1.3,2.1-1.2c0,0,0-0.1,0-0.2c0.6-0.6,1.2-1.1,1.8-1.7c0.4-0.7,0.8-1.5,1.1-2.3
		c-0.1,0-0.5-0.1-0.8-0.2c-2-0.8-4-1.7-5.9-2.6c2.3,0.8,4.6,1.7,6.7,2.4c0.2-0.6,0.5-1.1,0.6-1.6c0.1-0.3,0.2-0.6,0.2-0.8
		c-0.1-0.7-0.2-1.3-0.3-2c-2.2,0.3-4.7,0.7-7.2,1.1c0,0.1,0,0.1,0,0.2c2.3,0.3,4.6,0.5,6.8,0.8c-0.3,0.2-0.6,0.3-0.9,0.2
		c-1.8-0.2-3.5-0.4-5.3-0.6c-0.3,0-0.8-0.4-0.7,0.4c-0.1,0.2-0.1,0.5-0.2,0.7c-0.2,0.2-0.3,0.3-0.5,0.5c-0.7-0.4-0.5,0.1-0.5,0.4
		c-0.2-0.1-0.3-0.2-0.5-0.3c0,0.2-0.1,0.5-0.1,0.7c-0.1-0.2-0.3-0.4-0.4-0.7c-0.1,0.2-0.2,0.3-0.4,0.5
		C146,106.4,145.6,106.9,145.2,107.1z M137.6,101.2c-0.2,0.1-0.5,0.1-0.5,0.2c-0.1,0.7-0.2,1.3-0.2,2c2.3,0.3,4.7,0.6,7.2,0.9
		c-0.3-0.4-0.6-0.5-0.9-0.6C141.3,102.8,139.4,101.9,137.6,101.2c0.3,0.1,0.8,0.1,1.1,0.3c1.7,0.7,3.3,1.3,5,2
		c0.4,0.2,0.7,0.4,0.7-0.3c0.1-0.2,0.3-0.4,0.4-0.6c0.2-0.1,0.3-0.3,0.5-0.4c0.1,0.1,0.3,0.2,0.5,0.4c-0.4-2.7-0.7-5.2-1.1-7.4
		c-0.7,0.1-1.3,0.2-1.9,0.3c-0.1,0-0.2,0.2-0.3,0.2c-0.7,0.4-1.5,0.8-2.2,1.2c-0.5,0.6-1,1.2-1.6,1.9c0,0,0.2,0.2,0.3,0.4
		c-0.3-0.1-0.5-0.2-0.5-0.2c-0.4,0.7-0.8,1.3-1.2,1.9C137.4,101,137.5,101.1,137.6,101.2z M145.1,95.1c0.3,2.4,0.7,4.8,1.1,7.3
		c0.1,0,0.1,0,0.2,0c0.3-2.5,0.6-5,0.9-7.3C146.5,95.1,145.8,95.1,145.1,95.1z M147.8,104.6c0-0.9-0.6-1.5-1.5-1.6
		c-0.9,0-1.6,0.7-1.6,1.6c0,0.9,0.7,1.5,1.5,1.6C147.1,106.2,147.8,105.5,147.8,104.6z"/>
	<path class="st6" d="M155.3,6.4c0.2,0.4,0.3,0.9,0.5,1.3c0.2,0.4,0.4,0.7,0.7,1.2c-1.1-0.6-1.9-1.1-3-1.7
		C154,6.9,154.6,6.6,155.3,6.4C155.2,6.4,155.2,6.4,155.3,6.4z"/>
	<path class="st6" d="M144.4,106.1c-1.8,1.4-3.6,2.9-5.3,4.3c0.4-0.4,0.7-0.9,1.2-1.3C141.6,108.1,143,107.1,144.4,106.1z"/>
	<path class="st6" d="M153.9,110.3c-1.9-1.4-3.8-2.8-5.6-4.2C150.1,107.5,152,108.9,153.9,110.3z"/>
	<path class="st6" d="M147.3,107c0.9,2,1.8,4,2.7,6c-0.1,0-0.3,0-0.3-0.1C148.9,111,148.1,109,147.3,107z"/>
	<path class="st6" d="M144.7,106.8c-1.4,1.8-2.7,3.6-4.1,5.3C141.9,110.4,143.3,108.6,144.7,106.8z"/>
	<path class="st6" d="M144.7,102.5c-0.3-0.3-0.8-0.5-1-0.8c-1.1-1.5-2.2-3-3.3-4.5C141.8,98.9,143.3,100.7,144.7,102.5z"/>
	<path class="st6" d="M142.5,95.7c0.9,2.2,1.9,4.3,2.8,6.5C144.4,100.1,143.4,97.9,142.5,95.7z"/>
	<path class="st6" d="M144.4,103.2c-1.8-1.3-3.6-2.6-5.4-4C140.8,100.5,142.6,101.8,144.4,103.2z"/>
	<path class="st6" d="M149.9,95.5c-0.9,2.3-1.9,4.7-2.8,7C148,100.1,149,97.8,149.9,95.5z"/>
	<path class="st6" d="M147.9,106.8c0.6,0.6,1.2,1.1,1.7,1.7c0.9,1.1,1.7,2.3,2.5,3.4c-0.6-0.6-1.3-1.2-1.8-1.9
		C149.5,109,148.7,107.9,147.9,106.8z"/>
	<path class="st6" d="M142.7,113.6c0.9-2.2,1.7-4.3,2.6-6.5C144.4,109.2,143.6,111.4,142.7,113.6z"/>
	<path class="st6" d="M148.5,103.6c2.2-0.9,4.3-1.9,6.5-2.8C152.8,101.8,150.6,102.7,148.5,103.6z"/>
	<path class="st6" d="M148,103.2c1.8-1.4,3.6-2.8,5.4-4.2C151.6,100.4,149.8,101.8,148,103.2z"/>
	<path class="st6" d="M148,102.2c1.3-1.8,2.6-3.6,4-5.4C150.7,98.7,149.3,100.5,148,102.2z"/>
	<path class="st6" d="M147.7,104.5c-0.7,0.5-1,1-1.4,1c-0.3,0-1-0.6-0.9-0.8c0-0.4,0.5-1,0.9-1C146.6,103.6,147,104.1,147.7,104.5z"
		/>
</g>
</svg>
